<svg width="50" height="50" viewBox="0 0 50 50" fill="none" xmlns="http://www.w3.org/2000/svg">
<g clip-path="url(#clip0_317_378)">
<path d="M49.8504 25.1068C49.7306 23.5798 48.3879 22.4194 46.862 22.5204C46.3672 22.5533 45.8725 22.5845 45.3773 22.6151V20.8069C45.3773 9.3338 36.0435 0 24.5704 0C13.0973 0 3.76354 9.3338 3.76354 20.8069V22.5616C3.54077 22.5475 3.31799 22.533 3.09521 22.5182C1.5659 22.4174 0.257074 23.5321 0.110971 25.0557C0.037347 25.8194 0.270807 26.5621 0.767861 27.1469C1.2653 27.7321 1.96072 28.0819 2.72671 28.1326C10.131 28.6217 17.5815 28.8662 25.0316 28.8662C32.4508 28.8662 39.8689 28.6236 47.2301 28.1384C47.9866 28.0884 48.6766 27.7451 49.1729 27.1717C49.6696 26.598 49.9099 25.8659 49.8504 25.1068ZM5.22839 20.8069C5.22839 10.1418 13.9053 1.46484 24.5704 1.46484C35.2356 1.46484 43.9125 10.1418 43.9125 20.8069V22.7016C43.3612 22.7329 42.8093 22.7631 42.2577 22.7917V20.8069C42.2577 11.0542 34.3231 3.12004 24.5704 3.12004C14.8178 3.12004 6.88358 11.0542 6.88358 20.8069V22.7467C6.3316 22.7165 5.77961 22.6849 5.22839 22.6521V20.8069ZM40.7924 22.8645C30.0033 23.3761 19.1333 23.3624 8.34843 22.823V20.8069C8.34843 11.8618 15.6253 4.58488 24.5704 4.58488C33.5155 4.58488 40.7924 11.8622 40.7924 20.8069V22.8645ZM48.0655 26.2131C47.8275 26.4881 47.4968 26.6529 47.134 26.6766C32.4451 27.6443 17.5369 27.6428 2.82322 26.6708C2.45625 26.6464 2.12284 26.479 1.88442 26.1982C1.646 25.9178 1.53385 25.5619 1.56933 25.1957C1.63647 24.4965 2.21516 23.9769 2.90676 23.9769C2.93728 23.9769 2.9678 23.9777 2.9987 23.9799C17.583 24.9432 32.3734 24.9439 46.9585 23.9819C47.6894 23.9353 48.3326 24.4896 48.3902 25.2247C48.4188 25.5871 48.3036 25.938 48.0655 26.2131Z" fill="black" fill-opacity="0.5"/>
<path d="M45.5253 29.6684C45.1214 29.6276 44.7632 29.9198 44.722 30.3219C44.6701 30.8235 44.6087 31.3473 44.5351 31.8893C42.5182 32.0046 40.498 32.1022 38.4743 32.1823L38.586 30.8289C38.6192 30.4256 38.3194 30.072 37.9162 30.0385C37.5126 30.0049 37.1593 30.3051 37.1261 30.7083L36.9999 32.2372C35.2924 32.2979 33.5834 32.3456 31.8729 32.3811L31.9305 30.9853C31.9473 30.5809 31.633 30.2399 31.229 30.2235C30.8281 30.2052 30.4836 30.5206 30.4672 30.925L30.4058 32.4085C28.7056 32.4368 27.0042 32.4528 25.3029 32.4562V31.012C25.3029 30.6072 24.9748 30.2795 24.5705 30.2795C24.1657 30.2795 23.838 30.6072 23.838 31.012V32.4562C22.1367 32.4528 20.4353 32.4368 18.7347 32.4085L18.6729 30.9071C18.6561 30.5027 18.3121 30.1872 17.9111 30.2055C17.5068 30.2219 17.1928 30.5634 17.2092 30.9673L17.2676 32.3814C15.5575 32.346 13.8481 32.2979 12.141 32.2376L12.0117 30.6725C11.9785 30.2692 11.6241 29.9694 11.2213 30.0026C10.8185 30.0362 10.5186 30.3898 10.5518 30.793L10.6666 32.1823C8.64295 32.1022 6.62231 32.0046 4.60586 31.8897C4.5288 31.3229 4.46471 30.7758 4.41207 30.2528C4.37125 29.8508 4.01305 29.5589 3.60946 29.5982C3.20701 29.6391 2.91366 29.998 2.95448 30.4005C3.4439 35.2314 4.84313 42.0872 8.72878 47.3164C9.97771 48.9967 11.9743 50 14.0701 50H35.0708C37.1666 50 39.1632 48.9967 40.4121 47.316C44.2829 42.107 45.6844 35.281 46.1792 30.4718C46.2204 30.0694 45.9278 29.7096 45.5253 29.6684ZM44.3096 33.3694C44.0815 34.7202 43.7767 36.15 43.3708 37.5996C41.5859 37.6957 39.7976 37.7777 38.0066 37.8464L38.353 33.6529C40.3416 33.5754 42.3275 33.4808 44.3096 33.3694ZM41.1476 43.3579C39.9464 43.4147 38.7436 43.4654 37.5393 43.5101L37.8853 39.3169C39.5653 39.2536 41.243 39.1781 42.9176 39.0904C42.4438 40.5331 41.8617 41.975 41.1476 43.3579ZM25.3029 48.5352V45.2129C26.8288 45.2099 28.3546 45.1969 29.8794 45.174L29.7409 48.5352H25.3029ZM19.4 48.5352L19.2615 45.174C20.7863 45.1969 22.3122 45.2099 23.838 45.2129V48.5352H19.4ZM6.22291 39.0904C7.89794 39.1781 9.57565 39.2536 11.2556 39.3169L11.6016 43.5101C10.3973 43.4654 9.19418 43.4147 7.99293 43.3579C7.2792 41.9754 6.69708 40.5335 6.22291 39.0904ZM12.7296 39.3696C14.3387 39.4234 15.9496 39.4665 17.5613 39.4981L17.7338 43.6829C16.1796 43.6527 14.6267 43.6123 13.0756 43.5612L12.7296 39.3696ZM19.0285 39.5245C20.631 39.5493 22.2343 39.5638 23.838 39.5668V43.7481C22.2919 43.745 20.7458 43.7317 19.2009 43.708L19.0285 39.5245ZM25.3029 43.7481V39.5668C26.9062 39.5634 28.5099 39.5493 30.1124 39.5241L29.94 43.708C28.3951 43.7317 26.849 43.745 25.3029 43.7481ZM31.5796 39.4981C33.1913 39.4665 34.8022 39.4234 36.4109 39.3696L36.0649 43.5612C34.5142 43.6123 32.9613 43.6527 31.4072 43.6829L31.5796 39.4981ZM36.8786 33.7074L36.5326 37.8998C34.9033 37.9551 33.2722 37.999 31.6402 38.0318L31.8127 33.8474C33.5026 33.8131 35.1913 33.7662 36.8786 33.7074ZM30.3455 33.8745L30.1731 38.0585C28.5503 38.084 26.9264 38.0985 25.3029 38.102V33.9211C26.984 33.9176 28.6651 33.902 30.3455 33.8745ZM23.838 33.9211V38.102C22.2141 38.0985 20.5906 38.084 18.9678 38.0585L18.7954 33.8745C20.4758 33.902 22.1569 33.9176 23.838 33.9211ZM17.3283 33.8478L17.5007 38.0322C15.8688 37.9993 14.2376 37.9551 12.6087 37.8998L12.2623 33.7074C13.9496 33.7666 15.6383 33.8131 17.3283 33.8478ZM10.788 33.6529L11.1343 37.8464C9.34333 37.7777 7.555 37.6957 5.76972 37.5996C5.36384 36.1511 5.05943 34.7214 4.83093 33.3694C6.81342 33.4808 8.79935 33.5754 10.788 33.6529ZM9.90447 46.442C9.52529 45.9316 9.17091 45.4041 8.83979 44.8631C9.79995 44.9062 10.7613 44.9451 11.7233 44.9802L11.98 48.0934C11.166 47.7348 10.4454 47.1699 9.90447 46.442ZM13.4838 48.5016L13.1973 45.031C14.7278 45.0802 16.2605 45.1195 17.7944 45.1489L17.934 48.5352H14.0701C13.8733 48.5352 13.6776 48.5237 13.4838 48.5016ZM31.2069 48.5352L31.3465 45.1489C32.8804 45.1195 34.4131 45.0802 35.9436 45.031L35.6571 48.5016C35.4633 48.5237 35.2676 48.5352 35.0708 48.5352H31.2069ZM39.2364 46.442C38.6955 47.1699 37.9749 47.7348 37.1609 48.0934L37.418 44.9802C38.38 44.9451 39.341 44.9062 40.3011 44.8631C39.97 45.4041 39.6156 45.9316 39.2364 46.442Z" fill="black" fill-opacity="0.5"/>
</g>
<defs>
<clipPath id="clip0_317_378">
<rect width="50" height="50" fill="white"/>
</clipPath>
</defs>
</svg>
