<svg width="50" height="50" viewBox="0 0 50 50" fill="none" xmlns="http://www.w3.org/2000/svg">
<g clip-path="url(#clip0_317_376)">
<path d="M47.3764 3.16975C47.3206 2.86421 47.0669 2.61125 46.7613 2.55633C45.9464 2.2508 42.4149 0.991635 37.9803 0.359757C37.0722 0.230587 36.8244 1.67549 37.7736 1.81072C41.7675 2.37978 45.073 3.50303 46.0708 3.86435C46.4904 5.00861 47.921 9.18065 48.3554 13.9684C48.6399 17.1034 48.4486 19.9073 47.7867 22.3021C46.592 26.625 43.5255 29.8261 39.2951 31.2905C36.3906 32.2961 32.0167 32.0541 27.4094 29.0162L28.8893 27.9191C30.2456 29.3191 32.0851 30.0493 33.9419 30.0493C35.4551 30.0493 36.979 29.5655 38.2593 28.5677C40.9559 26.466 45.8539 22.6745 45.9031 22.6364C46.2325 22.3272 46.2748 21.9827 46.0298 21.603C45.769 21.2724 45.4287 20.9171 45.0281 20.5537C46.1962 19.6475 47.1486 18.9098 47.1487 18.9097C47.4779 18.6005 47.5201 18.2561 47.2752 17.8765C46.6625 17.1 45.4814 16.2595 44.1693 15.6381C44.6635 15.1499 45.1707 14.649 45.6969 14.1296C45.9869 13.783 45.9875 13.4359 45.6987 13.0884C45.4228 12.8142 45.076 12.5258 44.6752 12.2358C45.7212 11.2009 46.5727 10.3597 46.5728 10.3596C46.8627 10.013 46.8631 9.66597 46.5743 9.31852C45.7741 8.52318 44.2305 7.73281 42.6374 7.28775C42.1891 5.7039 41.3936 4.16959 40.5932 3.37405C40.3068 3.08933 39.8441 3.09002 39.5585 3.37562C39.5585 3.37562 38.7084 4.22558 37.6639 5.26842C37.3716 4.86899 37.0806 4.5232 36.8042 4.24844C36.5178 3.96392 36.0553 3.96441 35.7697 4.24981C35.7697 4.24981 35.0901 4.92879 34.2438 5.77425C33.6182 4.46936 32.7722 3.29481 31.9907 2.6857C31.6722 2.43742 31.2128 2.49361 30.9636 2.81155C30.9636 2.81165 30.2183 3.76205 29.3039 4.92625C28.9372 4.52672 28.5786 4.18728 28.2453 3.92757C27.9267 3.67929 27.4673 3.73557 27.218 4.05361C27.1797 4.10247 23.3649 8.97048 21.2501 11.6506C20.0945 13.1153 19.5812 14.9399 19.8048 16.7882C20.0006 18.4069 20.7408 19.874 21.9099 20.9862L20.8297 22.5159C17.7017 17.8976 17.4456 13.5055 18.4647 10.5972C19 9.06966 19.7254 7.71415 20.6207 6.56852C23.4512 2.94668 28.0608 1.23766 34.322 1.48975C35.238 1.52366 35.3391 0.0637987 34.3809 0.0253017C31.3802 -0.0954656 28.679 0.223942 26.3523 0.974243C23.5056 1.89231 21.1951 3.46375 19.4838 5.64411C16.0296 9.53387 13.3536 15.4212 11.5303 23.1433C10.5488 27.3002 10.0783 30.9258 9.87504 32.8592C7.71647 31.7179 5.50172 34.7103 7.23623 36.4474L2.88812 39.084C1.25786 40.0727 0.207306 41.7982 0.0780377 43.6998L0.0736408 43.7643C-0.0645185 45.795 0.839282 47.7211 2.49123 48.9164C3.24652 49.463 4.11905 48.2852 3.35038 47.7291C2.11056 46.8319 1.43227 45.387 1.53584 43.8638L1.54024 43.7993C1.63726 42.373 2.42518 41.0788 3.648 40.3372L8.30712 37.512L12.4701 41.6495L9.73229 46.3687C9.03113 47.5773 7.78291 48.3873 6.3936 48.5356C5.20381 48.6631 5.40509 50.1148 6.54896 49.9931C8.40131 49.7954 10.0653 48.7154 11.0001 47.1042L13.5452 42.717C15.2157 44.3408 18.1611 42.3815 17.175 40.2206C19.0355 40.072 22.4661 39.6943 26.4643 38.761C33.9662 37.0099 39.9237 34.1846 44.1726 30.3636C54.3639 22.6052 48.0963 5.07271 47.3764 3.16975ZM24.2982 26.5425L26.9685 23.8887C27.0851 24.9076 27.4278 25.8858 27.9828 26.7668L26.1545 28.122C25.5369 27.6486 24.9172 27.1236 24.2982 26.5425ZM39.2277 11.1535C40.6091 11.6095 41.9966 12.2531 43.1346 12.9656C43.4972 13.1926 43.8246 13.4202 44.1061 13.6405C41.9989 15.7214 39.8926 17.8032 37.7918 19.8905C35.6321 22.0371 32.1151 22.0399 29.9518 19.8968C29.9509 19.8959 29.9501 19.895 29.9492 19.8943C29.9481 19.8932 29.9468 19.8923 29.9458 19.8912C29.9456 19.891 29.9454 19.8908 29.9452 19.8906C28.8987 18.8505 28.3223 17.468 28.3223 15.9977C28.3223 14.3914 29.0414 12.8505 30.2654 11.8123C31.4118 10.8396 34.1004 9.46049 39.2277 11.1535ZM37.3584 27.4117C34.9508 29.2881 31.4562 28.8685 29.5686 26.476C28.6703 25.3376 28.2668 23.9347 28.4207 22.5026L29.4825 21.4409C30.7613 22.4674 32.3224 22.9807 33.8835 22.9807C35.679 22.9807 37.4744 22.3019 38.8398 20.9448C39.4026 20.382 39.9551 19.8081 40.5208 19.2472C41.908 19.9675 43.2709 20.8502 44.3829 21.96C42.9699 23.0543 39.4823 25.7564 37.3584 27.4117ZM45.599 18.2565C45.1582 18.5982 44.5353 19.081 43.8616 19.6037C43.1711 19.0929 42.4053 18.6044 41.6103 18.168C42.0821 17.7011 42.5605 17.228 43.0498 16.7442C44.0916 17.1744 45.0019 17.7478 45.599 18.2565ZM40.0187 4.98761C40.5059 5.71104 41.0283 6.83019 41.3251 8.06111C41.3898 8.32923 41.5995 8.53822 41.8677 8.60222C43.1033 8.89662 44.2271 9.41388 44.9558 9.89705C44.5635 10.2849 44.011 10.8312 43.4126 11.4233C42.3839 10.8291 41.2119 10.2936 40.033 9.87995C39.6168 8.70892 39.0786 7.54512 38.4813 6.52329C39.0787 5.92678 39.6294 5.37668 40.0187 4.98761ZM36.2553 5.8361C36.4777 6.11633 36.7077 6.44248 36.9371 6.804C37.4199 7.56525 37.8711 8.43895 38.2547 9.34764C36.1422 8.82324 34.426 8.80145 33.0555 9.03292C33.4768 8.61199 33.9833 8.10606 34.4859 7.60394C34.4925 7.59788 34.4989 7.59172 34.5053 7.58547C34.5076 7.58322 34.5101 7.58137 34.5123 7.57912L34.5689 7.52264C34.5726 7.51893 34.5755 7.51463 34.5791 7.51092C35.2128 6.87767 35.8316 6.25938 36.2553 5.8361ZM31.6142 4.35631C32.125 4.94667 32.7017 5.84832 33.1354 6.88139C32.6047 7.41165 32.0908 7.9251 31.6993 8.31613C31.2611 7.52782 30.7708 6.76863 30.258 6.08389C30.785 5.41303 31.2713 4.79336 31.6142 4.35631ZM21.2598 16.6118C21.0834 15.1537 21.4886 13.7141 22.4007 12.558C24.069 10.4437 26.794 6.96962 27.8915 5.56965C29.005 6.66916 29.8652 8.00337 30.586 9.37949C30.586 9.37949 29.0357 10.9422 28.9122 11.0651C27.5869 12.3824 26.8569 14.1341 26.8569 15.9976C26.8569 17.6136 27.4067 19.1452 28.4169 20.3827L27.3645 21.4287C25.9152 21.5869 24.4948 21.186 23.3423 20.2877C22.1761 19.3789 21.4366 18.0735 21.2598 16.6118ZM23.0716 21.8814C23.941 22.4205 24.9033 22.7579 25.906 22.8782L23.2582 25.5097C22.7037 24.9275 22.1998 24.3446 21.7426 23.7633L23.0716 21.8814ZM15.6536 41.6203C15.5959 41.6782 15.0754 42.1722 14.5571 41.6572L8.27595 35.4145C7.60753 34.7504 8.70508 33.6229 9.39676 34.3088L15.6606 40.5706C16.1444 41.0513 15.7775 41.4956 15.6536 41.6203ZM15.9936 38.8311L11.2315 34.0706C11.406 32.0174 12.4698 21.4902 16.502 12.9899C16.1125 18.3651 19.0205 23.3651 22.7081 27.0437C26.4888 30.919 31.9721 33.8786 37.5285 33.188C28.6765 37.9327 18.0161 38.7216 15.9936 38.8311Z" fill="black" fill-opacity="0.5"/>
</g>
<defs>
<clipPath id="clip0_317_376">
<rect width="50" height="50" fill="white"/>
</clipPath>
</defs>
</svg>
