<svg width="50" height="50" viewBox="0 0 50 50" fill="none" xmlns="http://www.w3.org/2000/svg">
<g opacity="0.5">
<path d="M44.0411 17.2827L44.665 16.6588C48.4698 12.8539 48.4698 6.66309 44.665 2.8582C42.8218 1.01514 40.3713 0 37.7647 0C35.1582 0 32.7076 1.01514 30.8644 2.8582L29.9882 3.73447C29.7021 4.02061 29.7021 4.48428 29.9882 4.77031C30.2743 5.05625 30.738 5.05625 31.024 4.77031L31.9003 3.89404C35.1338 0.660352 40.3956 0.660352 43.6292 3.89404C45.1957 5.46045 46.0584 7.54316 46.0584 9.7585C46.0584 11.9738 45.1957 14.0565 43.6292 15.6229L42.8355 16.4166C39.0808 14.1334 34.1067 14.6122 30.8644 17.8543L29.1412 19.5775C28.879 18.9698 28.2744 18.5432 27.5716 18.5432H22.4284C21.7257 18.5432 21.121 18.9698 20.8588 19.5775L19.1355 17.8544C15.8932 14.6123 10.919 14.1335 7.16443 16.4167L6.37078 15.623C3.13708 12.3895 3.13708 7.12783 6.37078 3.89414C9.60427 0.660449 14.8661 0.660449 18.0997 3.89414L23.89 9.68428C24.1864 9.98076 24.5806 10.1441 25 10.1441C25.4193 10.1441 25.8135 9.98076 26.1099 9.68437L29.0905 6.70381C29.3766 6.41768 29.3766 5.954 29.0906 5.66797C28.8046 5.38213 28.3408 5.38193 28.0549 5.66797L25.0742 8.64853C25.0488 8.67393 25.0199 8.6792 25.0001 8.6792C24.9802 8.6792 24.9513 8.67383 24.926 8.64844L19.1356 2.8582C15.3306 -0.946582 9.14001 -0.946582 5.33503 2.8582C1.53025 6.66309 1.53025 12.8539 5.33513 16.6588L5.95906 17.2826C5.74499 17.4627 5.5365 17.6528 5.33503 17.8542C1.53025 21.6591 1.53025 27.8498 5.33503 31.6547L20.7195 47.0392V48.291C20.7195 49.2333 21.4862 50 22.4285 50H27.5717C28.5139 50 29.2806 49.2333 29.2806 48.291V47.0393L44.665 31.6548C48.4698 27.8499 48.4698 21.6592 44.665 17.8543C44.4636 17.6528 44.2551 17.4628 44.0411 17.2827ZM28.7566 35.3374C29.6143 34.4185 30.1408 33.1865 30.1408 31.8333V31.667C30.1408 31.2624 29.813 30.9346 29.4084 30.9346C29.0038 30.9346 28.676 31.2624 28.676 31.667V31.8333C28.676 33.8603 27.0269 35.5093 25 35.5093C22.973 35.5093 21.324 33.8603 21.324 31.8333V28.7672C21.324 26.7402 22.973 25.0912 25 25.0912C27.0269 25.0912 28.676 26.7402 28.676 28.7672V28.9331C28.676 29.3377 29.0038 29.6655 29.4084 29.6655C29.813 29.6655 30.1408 29.3377 30.1408 28.9331V28.7672C30.1408 27.414 29.6143 26.1819 28.7565 25.263C31.011 24.0635 32.8653 23.4316 34.152 23.4316C35.0406 23.4316 36.0304 26.2525 36.0304 30.3003C36.0304 32.1932 35.8043 34.0199 35.4097 35.312C35.06 36.4574 34.5781 37.1688 34.152 37.1688C32.8654 37.1688 31.0109 36.5369 28.7566 35.3374ZM21.2433 25.263C20.3856 26.1819 19.8592 27.4139 19.8592 28.7671V31.8332C19.8592 33.1864 20.3856 34.4184 21.2433 35.3373C21.2046 35.3579 21.1649 35.3798 21.1263 35.4001C21.1142 35.4062 21.1022 35.4123 21.0905 35.4189C18.9047 36.5663 17.1054 37.1687 15.8478 37.1687C14.9594 37.1687 13.9695 34.3478 13.9695 30.3001C13.9695 28.4071 14.1957 26.5804 14.5902 25.2883C14.9399 24.1429 15.4219 23.4314 15.8478 23.4314C17.1345 23.4315 18.989 24.0635 21.2433 25.263ZM22.4284 20.0079H27.5716C27.7062 20.0079 27.8157 20.1174 27.8157 20.2521V24.1054C27.7121 24.1616 27.6071 24.2201 27.5019 24.2786C26.7609 23.8639 25.9078 23.6264 25 23.6264C24.0921 23.6264 23.239 23.8639 22.4979 24.2786C22.3928 24.2201 22.2878 24.1616 22.1843 24.1054V21.2068C22.1843 21.2065 22.1843 21.2062 22.1843 21.2062V20.2521C22.1843 20.1174 22.2937 20.0079 22.4284 20.0079ZM6.37078 30.6188C3.13708 27.3853 3.13708 22.1237 6.37078 18.89C9.60427 15.6563 14.866 15.6563 18.0997 18.89L20.7193 21.5097V23.358C18.7672 22.4339 17.1342 21.9667 15.8477 21.9667C15.038 21.9667 13.9194 22.4688 13.189 24.8605C12.7475 26.3066 12.5045 28.2384 12.5045 30.3002C12.5045 32.3619 12.7475 34.2938 13.189 35.7397C13.9194 38.1315 15.038 38.6336 15.8477 38.6336C17.1341 38.6336 18.7671 38.1664 20.7193 37.2423V44.9675L6.37078 30.6188ZM27.5716 48.5352H22.4284C22.2937 48.5352 22.1843 48.4257 22.1843 48.291V36.495C22.2879 36.4388 22.3928 36.3803 22.4979 36.3218C23.239 36.7365 24.0921 36.974 25 36.974C25.9079 36.974 26.761 36.7365 27.502 36.3218C27.607 36.3803 27.7122 36.4388 27.8157 36.495V46.7353V46.7362V48.291C27.8157 48.4257 27.7062 48.5352 27.5716 48.5352ZM43.6292 30.6188L29.2805 44.9675V37.2424C31.2327 38.1665 32.8657 38.6337 34.152 38.6337C34.9618 38.6337 36.0804 38.1316 36.8107 35.7398C37.2522 34.2938 37.4954 32.362 37.4954 30.3003C37.4954 28.2385 37.2523 26.3066 36.8107 24.8606C36.0804 22.4688 34.9618 21.9668 34.152 21.9668C32.8658 21.9668 31.2327 22.4341 29.2805 23.3582V21.5099L31.9003 18.8901C35.1338 15.6564 40.3956 15.6564 43.6292 18.8901C46.8629 22.1237 46.8629 27.3853 43.6292 30.6188Z" fill="black"/>
</g>
</svg>
