<svg width="40" height="40" viewBox="0 0 40 40" fill="none" xmlns="http://www.w3.org/2000/svg">
    <path d="M13.9219 15H25.6406C25.7649 15 25.8842 14.9506 25.9721 14.8627C26.06 14.7748 26.1094 14.6556 26.1094 14.5312C26.1094 14.4069 26.06 14.2877 25.9721 14.1998C25.8842 14.1119 25.7649 14.0625 25.6406 14.0625H13.9219C13.7976 14.0625 13.6783 14.1119 13.5904 14.1998C13.5025 14.2877 13.4531 14.4069 13.4531 14.5312C13.4531 14.6556 13.5025 14.7748 13.5904 14.8627C13.6783 14.9506 13.7976 15 13.9219 15Z" fill="#4D0200"/>
    <path d="M9.18859 14.4444L8.14711 15.4401L7.72469 15.0177C7.68138 14.9732 7.62966 14.9378 7.57254 14.9134C7.51542 14.8891 7.45403 14.8763 7.39194 14.8759C7.32984 14.8755 7.26829 14.8874 7.21084 14.911C7.1534 14.9345 7.10121 14.9693 7.05731 15.0132C7.0134 15.0571 6.97866 15.1093 6.9551 15.1668C6.93153 15.2242 6.91962 15.2858 6.92004 15.3478C6.92047 15.4099 6.93323 15.4713 6.95757 15.5284C6.98192 15.5856 7.01737 15.6373 7.06187 15.6806L7.80836 16.4271C7.89498 16.5138 8.01207 16.563 8.13456 16.5644C8.25705 16.5658 8.37521 16.5191 8.46375 16.4345L9.83648 15.122C9.8814 15.0796 9.91749 15.0287 9.94266 14.9722C9.96784 14.9158 9.98161 14.8549 9.98318 14.7932C9.98475 14.7314 9.97409 14.6699 9.95181 14.6123C9.92953 14.5546 9.89608 14.502 9.85337 14.4573C9.81067 14.4126 9.75955 14.3769 9.70297 14.352C9.64638 14.3272 9.58545 14.3138 9.52366 14.3126C9.46188 14.3114 9.40047 14.3224 9.34297 14.345C9.28546 14.3677 9.233 14.4014 9.18859 14.4444Z" fill="#4D0200"/>
    <path d="M8.45312 12.2578C7.8239 12.2578 7.2088 12.4444 6.68562 12.794C6.16244 13.1436 5.75467 13.6404 5.51388 14.2218C5.27309 14.8031 5.21009 15.4428 5.33285 16.0599C5.45562 16.677 5.75862 17.2439 6.20356 17.6888C6.64849 18.1338 7.21537 18.4368 7.83251 18.5595C8.44965 18.6823 9.08933 18.6192 9.67065 18.3784C10.252 18.1376 10.7488 17.7298 11.0984 17.2067C11.448 16.6835 11.6345 16.0684 11.6345 15.4391C11.6336 14.5957 11.2981 13.787 10.7017 13.1906C10.1052 12.5942 9.29659 12.2587 8.45312 12.2578ZM8.45312 17.683C8.00932 17.683 7.57549 17.5514 7.20648 17.3049C6.83747 17.0583 6.54986 16.7079 6.38003 16.2978C6.21019 15.8878 6.16575 15.4367 6.25233 15.0014C6.33892 14.5661 6.55263 14.1663 6.86644 13.8525C7.18026 13.5386 7.58009 13.3249 8.01536 13.2384C8.45064 13.1518 8.90181 13.1962 9.31183 13.366C9.72185 13.5359 10.0723 13.8235 10.3189 14.1925C10.5654 14.5615 10.697 14.9953 10.697 15.4391C10.6965 16.0341 10.4599 16.6046 10.0392 17.0253C9.61851 17.446 9.0481 17.6827 8.45312 17.6834V17.683Z" fill="#4D0200"/>
    <path d="M13.9219 22.8125H25.6406C25.7649 22.8125 25.8842 22.7631 25.9721 22.6752C26.06 22.5873 26.1094 22.4681 26.1094 22.3438C26.1094 22.2194 26.06 22.1002 25.9721 22.0123C25.8842 21.9244 25.7649 21.875 25.6406 21.875H13.9219C13.7976 21.875 13.6783 21.9244 13.5904 22.0123C13.5025 22.1002 13.4531 22.2194 13.4531 22.3438C13.4531 22.4681 13.5025 22.5873 13.5904 22.6752C13.6783 22.7631 13.7976 22.8125 13.9219 22.8125Z" fill="#4D0200"/>
    <path d="M9.18859 22.2569L8.14711 23.2526L7.72469 22.8302C7.68138 22.7857 7.62966 22.7503 7.57254 22.7259C7.51542 22.7016 7.45403 22.6888 7.39194 22.6884C7.32984 22.688 7.26829 22.6999 7.21084 22.7235C7.1534 22.747 7.10121 22.7818 7.05731 22.8257C7.0134 22.8696 6.97866 22.9218 6.9551 22.9793C6.93153 23.0367 6.91962 23.0983 6.92004 23.1603C6.92047 23.2224 6.93323 23.2838 6.95757 23.3409C6.98192 23.3981 7.01737 23.4498 7.06187 23.4931L7.80836 24.2396C7.89498 24.3263 8.01207 24.3755 8.13456 24.3769C8.25705 24.3783 8.37521 24.3316 8.46375 24.247L9.83648 22.9345C9.8814 22.8921 9.91749 22.8412 9.94266 22.7847C9.96784 22.7283 9.98161 22.6674 9.98318 22.6057C9.98475 22.5439 9.97409 22.4824 9.95181 22.4248C9.92953 22.3671 9.89608 22.3145 9.85337 22.2698C9.81067 22.2251 9.75955 22.1894 9.70297 22.1645C9.64638 22.1397 9.58545 22.1263 9.52366 22.1251C9.46188 22.1239 9.40047 22.1349 9.34297 22.1575C9.28546 22.1802 9.233 22.2139 9.18859 22.2569Z" fill="#4D0200"/>
    <path d="M8.45312 20.0703C7.8239 20.0703 7.2088 20.2569 6.68562 20.6065C6.16244 20.9561 5.75467 21.4529 5.51388 22.0343C5.27309 22.6156 5.21009 23.2553 5.33285 23.8724C5.45562 24.4895 5.75862 25.0564 6.20356 25.5013C6.64849 25.9463 7.21537 26.2493 7.83251 26.372C8.44965 26.4947 9.08933 26.4317 9.67065 26.1909C10.252 25.9501 10.7488 25.5423 11.0984 25.0192C11.448 24.496 11.6345 23.8809 11.6345 23.2516C11.6336 22.4082 11.2981 21.5995 10.7017 21.0031C10.1052 20.4067 9.29659 20.0712 8.45312 20.0703ZM8.45312 25.4955C8.00932 25.4955 7.57549 25.3639 7.20648 25.1174C6.83747 24.8708 6.54986 24.5204 6.38003 24.1103C6.21019 23.7003 6.16575 23.2492 6.25233 22.8139C6.33892 22.3786 6.55263 21.9788 6.86644 21.665C7.18026 21.3511 7.58009 21.1374 8.01536 21.0509C8.45064 20.9643 8.90181 21.0087 9.31183 21.1785C9.72185 21.3484 10.0723 21.636 10.3189 22.005C10.5654 22.374 10.697 22.8078 10.697 23.2516C10.6965 23.8466 10.4599 24.4171 10.0392 24.8378C9.61851 25.2585 9.0481 25.4952 8.45312 25.4959V25.4955Z" fill="#4D0200"/>
    <path d="M9.18859 30.0694L8.14711 31.0651L7.72469 30.6427C7.68138 30.5982 7.62966 30.5628 7.57254 30.5384C7.51542 30.5141 7.45403 30.5013 7.39194 30.5009C7.32984 30.5005 7.26829 30.5124 7.21084 30.536C7.1534 30.5595 7.10121 30.5943 7.05731 30.6382C7.0134 30.6821 6.97866 30.7343 6.9551 30.7918C6.93153 30.8492 6.91962 30.9108 6.92004 30.9728C6.92047 31.0349 6.93323 31.0963 6.95757 31.1534C6.98192 31.2106 7.01737 31.2623 7.06187 31.3056L7.80836 32.0521C7.89498 32.1388 8.01207 32.188 8.13456 32.1894C8.25705 32.1908 8.37521 32.1441 8.46375 32.0595L9.83648 30.747C9.8814 30.7046 9.91749 30.6537 9.94266 30.5972C9.96784 30.5408 9.98161 30.4799 9.98318 30.4182C9.98475 30.3564 9.97409 30.2949 9.95181 30.2373C9.92953 30.1796 9.89608 30.127 9.85337 30.0823C9.81067 30.0376 9.75955 30.0019 9.70297 29.977C9.64638 29.9522 9.58545 29.9388 9.52366 29.9376C9.46188 29.9364 9.40047 29.9474 9.34297 29.97C9.28546 29.9927 9.233 30.0264 9.18859 30.0694Z" fill="#4D0200"/>
    <path d="M8.45312 27.8828C7.8239 27.8828 7.2088 28.0694 6.68562 28.419C6.16244 28.7686 5.75467 29.2654 5.51388 29.8468C5.27309 30.4281 5.21009 31.0678 5.33285 31.6849C5.45562 32.302 5.75862 32.8689 6.20356 33.3138C6.64849 33.7588 7.21537 34.0618 7.83251 34.1845C8.44965 34.3073 9.08933 34.2442 9.67065 34.0034C10.252 33.7626 10.7488 33.3548 11.0984 32.8317C11.448 32.3085 11.6345 31.6934 11.6345 31.0641C11.6336 30.2207 11.2981 29.412 10.7017 28.8156C10.1052 28.2192 9.29659 27.8837 8.45312 27.8828ZM8.45312 33.308C8.00932 33.308 7.57549 33.1764 7.20648 32.9299C6.83747 32.6833 6.54986 32.3329 6.38003 31.9228C6.21019 31.5128 6.16575 31.0617 6.25233 30.6264C6.33892 30.1911 6.55263 29.7913 6.86644 29.4775C7.18026 29.1636 7.58009 28.9499 8.01536 28.8634C8.45064 28.7768 8.90181 28.8212 9.31183 28.991C9.72185 29.1609 10.0723 29.4485 10.3189 29.8175C10.5654 30.1865 10.697 30.6203 10.697 31.0641C10.6965 31.6591 10.4599 32.2296 10.0392 32.6503C9.61851 33.071 9.0481 33.3077 8.45312 33.3084V33.308Z" fill="#4D0200"/>
    <path d="M13.9219 16.5625H20.1719C20.2962 16.5625 20.4154 16.5131 20.5033 16.4252C20.5912 16.3373 20.6406 16.2181 20.6406 16.0938C20.6406 15.9694 20.5912 15.8502 20.5033 15.7623C20.4154 15.6744 20.2962 15.625 20.1719 15.625H13.9219C13.7976 15.625 13.6783 15.6744 13.5904 15.7623C13.5025 15.8502 13.4531 15.9694 13.4531 16.0938C13.4531 16.2181 13.5025 16.3373 13.5904 16.4252C13.6783 16.5131 13.7976 16.5625 13.9219 16.5625Z" fill="#4D0200"/>
    <path d="M13.9219 24.375H20.1719C20.2962 24.375 20.4154 24.3256 20.5033 24.2377C20.5912 24.1498 20.6406 24.0306 20.6406 23.9062C20.6406 23.7819 20.5912 23.6627 20.5033 23.5748C20.4154 23.4869 20.2962 23.4375 20.1719 23.4375H13.9219C13.7976 23.4375 13.6783 23.4869 13.5904 23.5748C13.5025 23.6627 13.4531 23.7819 13.4531 23.9062C13.4531 24.0306 13.5025 24.1498 13.5904 24.2377C13.6783 24.3256 13.7976 24.375 13.9219 24.375Z" fill="#4D0200"/>
    <path d="M4.60938 7.35156C4.48505 7.35156 4.36583 7.40095 4.27792 7.48886C4.19001 7.57676 4.14063 7.69599 4.14062 7.82031V8.3125C4.14062 8.43682 4.19001 8.55605 4.27792 8.64396C4.36583 8.73186 4.48505 8.78125 4.60938 8.78125C4.7337 8.78125 4.85292 8.73186 4.94083 8.64396C5.02874 8.55605 5.07812 8.43682 5.07812 8.3125V7.82031C5.07812 7.69599 5.02874 7.57676 4.94083 7.48886C4.85292 7.40095 4.7337 7.35156 4.60938 7.35156Z" fill="#4D0200"/>
    <path d="M4.60938 9.32739C4.48505 9.32739 4.36583 9.37678 4.27792 9.46469C4.19001 9.55259 4.14063 9.67182 4.14062 9.79614V14.3274C4.14062 14.4517 4.19001 14.5709 4.27792 14.6589C4.36583 14.7468 4.48505 14.7961 4.60938 14.7961C4.7337 14.7961 4.85292 14.7468 4.94083 14.6589C5.02874 14.5709 5.07812 14.4517 5.07812 14.3274V9.79614C5.07812 9.73459 5.066 9.67363 5.04244 9.61676C5.01889 9.55989 4.98436 9.50821 4.94083 9.46469C4.8973 9.42116 4.84563 9.38663 4.78876 9.36307C4.73189 9.33952 4.67093 9.32739 4.60938 9.32739Z" fill="#4D0200"/>
    <path d="M35.7243 20.9141C35.4107 20.8483 35.0872 20.8453 34.7724 20.9054C34.4577 20.9655 34.158 21.0874 33.8906 21.2641L29.0625 24.4348V6.8457C29.0625 5.29492 27.7881 4.0625 26.2372 4.0625H23.2813V2.60742C23.2813 2.4831 23.2319 2.36387 23.144 2.27597C23.0561 2.18806 22.9368 2.13867 22.8125 2.13867C22.6882 2.13867 22.569 2.18806 22.481 2.27597C22.3931 2.36387 22.3438 2.4831 22.3438 2.60742V4.0625H18.3594V2.60742C18.3594 2.4831 18.31 2.36387 18.2221 2.27597C18.1342 2.18806 18.0149 2.13867 17.8906 2.13867C17.7663 2.13867 17.6471 2.18806 17.5592 2.27597C17.4713 2.36387 17.4219 2.4831 17.4219 2.60742V4.0625H13.5156V2.60742C13.5156 2.4831 13.4662 2.36387 13.3783 2.27597C13.2904 2.18806 13.1712 2.13867 13.0469 2.13867C12.9226 2.13867 12.8033 2.18806 12.7154 2.27597C12.6275 2.36387 12.5781 2.4831 12.5781 2.60742V4.0625H8.59375V2.60742C8.59375 2.4831 8.54437 2.36387 8.45646 2.27597C8.36855 2.18806 8.24932 2.13867 8.125 2.13867C8.00068 2.13867 7.88146 2.18806 7.79355 2.27597C7.70564 2.36387 7.65625 2.4831 7.65625 2.60742V4.0625H5.14344C4.77644 4.05988 4.41255 4.12996 4.07277 4.2687C3.73299 4.40743 3.42404 4.61208 3.16376 4.87083C2.90348 5.12958 2.69701 5.43731 2.55627 5.77627C2.41553 6.11522 2.3433 6.47869 2.34375 6.8457V35.0488C2.34375 36.5997 3.59258 37.8906 5.14344 37.8906H26.2372C27.7881 37.8906 29.0625 36.5997 29.0625 35.0488V30.2703L36.5692 25.3406C36.9724 25.0758 37.288 24.6973 37.476 24.2531C37.6641 23.8089 37.7162 23.3189 37.6257 22.845C37.5353 22.3712 37.3064 21.9349 36.9679 21.5911C36.6295 21.2474 36.1967 21.0118 35.7243 20.9141ZM22.786 6.99797C22.95 6.99797 23.1102 7.04658 23.2465 7.13766C23.3828 7.22875 23.4891 7.3582 23.5518 7.50967C23.6146 7.66113 23.631 7.82779 23.599 7.98859C23.567 8.14938 23.4881 8.29708 23.3721 8.413C23.2562 8.52892 23.1085 8.60787 22.9477 8.63985C22.7869 8.67184 22.6203 8.65542 22.4688 8.59268C22.3173 8.52995 22.1879 8.4237 22.0968 8.28739C22.0057 8.15108 21.9571 7.99082 21.9571 7.82687C21.9573 7.60711 22.0447 7.3964 22.2001 7.241C22.3555 7.0856 22.5663 6.9982 22.786 6.99797ZM17.9014 6.99797C18.0653 6.99798 18.2256 7.04661 18.3619 7.1377C18.4982 7.22879 18.6044 7.35826 18.6672 7.50972C18.7299 7.66118 18.7463 7.82785 18.7143 7.98863C18.6823 8.14942 18.6034 8.29711 18.4874 8.41303C18.3715 8.52894 18.2238 8.60788 18.063 8.63986C17.9022 8.67184 17.7356 8.65542 17.5841 8.59268C17.4326 8.52994 17.3032 8.42369 17.2121 8.28738C17.121 8.15107 17.0724 7.99081 17.0724 7.82687C17.0727 7.6071 17.1601 7.39639 17.3155 7.241C17.4709 7.0856 17.6816 6.9982 17.9014 6.99797ZM13.0166 6.99797C13.1806 6.99801 13.3408 7.04667 13.4771 7.13778C13.6134 7.22889 13.7196 7.35836 13.7823 7.50983C13.845 7.6613 13.8614 7.82795 13.8294 7.98873C13.7974 8.14951 13.7184 8.29718 13.6025 8.41308C13.4865 8.52898 13.3388 8.60791 13.178 8.63987C13.0172 8.67184 12.8506 8.65541 12.6991 8.59266C12.5477 8.52992 12.4183 8.42367 12.3272 8.28737C12.2361 8.15106 12.1875 7.99081 12.1875 7.82687C12.1878 7.60707 12.2752 7.39634 12.4306 7.24094C12.5861 7.08554 12.7968 6.99815 13.0166 6.99797ZM8.13203 6.99797C8.29597 6.99798 8.45623 7.04661 8.59253 7.1377C8.72883 7.22879 8.83506 7.35826 8.89779 7.50972C8.96051 7.66118 8.97692 7.82785 8.94493 7.98863C8.91293 8.14942 8.83398 8.29711 8.71805 8.41303C8.60213 8.52894 8.45443 8.60788 8.29364 8.63986C8.13285 8.67184 7.96619 8.65542 7.81473 8.59268C7.66327 8.52994 7.53382 8.42369 7.44274 8.28738C7.35166 8.15107 7.30305 7.99081 7.30305 7.82687C7.3033 7.6071 7.39072 7.39639 7.54613 7.241C7.70155 7.0856 7.91226 6.9982 8.13203 6.99797ZM28.125 35.0488C28.1227 35.5503 27.9235 36.0308 27.5705 36.387C27.2174 36.7431 26.7386 36.9464 26.2372 36.9531H5.14344C4.10938 36.9531 3.28125 36.0827 3.28125 35.0488V6.8457C3.28067 6.60177 3.32856 6.36014 3.42214 6.13487C3.51572 5.9096 3.65313 5.70516 3.82639 5.53344C3.99964 5.36172 4.20529 5.22614 4.43138 5.13456C4.65748 5.04299 4.89952 4.99725 5.14344 5H7.65625V6.12406C6.95313 6.33 6.36211 7.01516 6.36211 7.82719C6.36211 8.0591 6.40779 8.28875 6.49654 8.50301C6.58529 8.71728 6.71538 8.91196 6.87937 9.07595C7.04336 9.23994 7.23804 9.37002 7.4523 9.45877C7.66657 9.54752 7.89621 9.5932 8.12813 9.5932C8.36005 9.5932 8.58969 9.54752 8.80395 9.45877C9.01822 9.37002 9.2129 9.23994 9.37689 9.07595C9.54088 8.91196 9.67096 8.71728 9.75971 8.50301C9.84846 8.28875 9.89414 8.0591 9.89414 7.82719C9.8997 7.43862 9.77451 7.05946 9.53868 6.75059C9.30285 6.44172 8.97006 6.22107 8.59375 6.12406V5H12.5781V6.12406C12.2005 6.22049 11.8661 6.44061 11.6282 6.7493C11.3903 7.058 11.2627 7.43747 11.2656 7.82719C11.2656 8.29616 11.4519 8.74593 11.7835 9.07755C12.1152 9.40917 12.5649 9.59547 13.0339 9.59547C13.5029 9.59547 13.9527 9.40917 14.2843 9.07755C14.6159 8.74593 14.8022 8.29616 14.8022 7.82719C14.7955 7.4437 14.6674 7.0722 14.4362 6.76616C14.205 6.46011 13.8827 6.2353 13.5156 6.12406V5H17.4219V6.12406C16.7188 6.33 16.1296 7.01516 16.1296 7.82719C16.1296 8.29546 16.3156 8.74455 16.6468 9.07567C16.9779 9.40679 17.427 9.59281 17.8952 9.59281C18.3635 9.59281 18.8126 9.40679 19.1437 9.07567C19.4748 8.74455 19.6609 8.29546 19.6609 7.82719C19.6662 7.43852 19.5407 7.05935 19.3047 6.7505C19.0687 6.44166 18.7358 6.22104 18.3594 6.12406V5H22.3438V6.12406C21.9663 6.2205 21.632 6.44068 21.3944 6.74941C21.1568 7.05814 21.0295 7.43761 21.0329 7.82719C21.0329 8.2961 21.2192 8.74581 21.5507 9.07739C21.8823 9.40896 22.332 9.59523 22.8009 9.59523C23.2699 9.59523 23.7196 9.40896 24.0511 9.07739C24.3827 8.74581 24.569 8.2961 24.569 7.82719C24.569 7.01547 23.9844 6.33031 23.2813 6.12406V5H26.2372C27.271 5 28.125 5.81188 28.125 6.8457V25.0505L26.3643 26.2067C26.3102 26.2423 26.2641 26.2886 26.2288 26.3429C26.1935 26.3971 26.1698 26.4581 26.1593 26.5219C26.1487 26.5858 26.1515 26.6511 26.1674 26.7139C26.1834 26.7766 26.2121 26.8353 26.2519 26.8864C26.3243 26.9793 26.429 27.0415 26.5451 27.0607C26.6613 27.0799 26.7805 27.0547 26.8789 26.9901L33.8491 22.4128L34.416 23.2758L22.6069 31.0312L22.0398 30.1682L24.2585 28.7114C24.31 28.6776 24.3543 28.634 24.3889 28.5831C24.4235 28.5322 24.4477 28.475 24.4602 28.4147C24.4727 28.3544 24.4732 28.2923 24.4617 28.2318C24.4502 28.1713 24.4268 28.1137 24.393 28.0623C24.3593 28.0108 24.3157 27.9665 24.2648 27.9319C24.2138 27.8973 24.1566 27.8731 24.0963 27.8606C24.0361 27.8481 23.9739 27.8476 23.9134 27.8591C23.853 27.8706 23.7954 27.8939 23.7439 27.9277L21.1354 29.6406C21.1306 29.6438 21.1263 29.6478 21.1214 29.6512C21.1095 29.6596 21.098 29.668 21.0866 29.6776C21.0828 29.6807 21.0795 29.6843 21.076 29.6876H13.9219C13.7976 29.6876 13.6783 29.737 13.5904 29.8249C13.5025 29.9128 13.4531 30.032 13.4531 30.1563C13.4531 30.2806 13.5025 30.3999 13.5904 30.4878C13.6783 30.5757 13.7976 30.6251 13.9219 30.6251H20.5477L20.2157 31.2523C20.2013 31.2509 20.1867 31.2501 20.1719 31.2501H13.9219C13.7976 31.2501 13.6783 31.2995 13.5904 31.3874C13.5025 31.4753 13.4531 31.5945 13.4531 31.7188C13.4531 31.8431 13.5025 31.9624 13.5904 32.0503C13.6783 32.1382 13.7976 32.1876 13.9219 32.1876H19.7207L19.1788 33.2114C19.141 33.2828 19.1223 33.3628 19.1245 33.4436C19.1267 33.5243 19.1497 33.6032 19.1914 33.6724C19.2331 33.7416 19.2919 33.7989 19.3623 33.8387C19.4326 33.8785 19.512 33.8994 19.5928 33.8995C19.597 33.8995 19.6011 33.8995 19.6052 33.8995L23.5666 33.7956C23.5763 33.7956 23.5857 33.7937 23.5952 33.793C23.6048 33.7922 23.6156 33.7916 23.6258 33.7901C23.6382 33.7882 23.6502 33.785 23.6623 33.7823C23.6712 33.7802 23.6802 33.7787 23.6891 33.776C23.7095 33.7699 23.7296 33.7623 23.749 33.7534C23.7538 33.7513 23.7582 33.7484 23.7629 33.7456C23.7781 33.7382 23.7928 33.7301 23.8071 33.7211C23.8087 33.7201 23.8103 33.7195 23.8117 33.7185L28.125 30.886V35.0488ZM22.7001 32.8803L20.3823 32.941L21.4341 30.9537L22.7001 32.8803ZM23.6888 32.6777L23.6527 32.623L23.1215 31.8149L34.9306 24.0598L35.4977 24.9227L23.6888 32.6777ZM36.2679 24.3871L34.6463 21.9192C34.8461 21.8352 35.0616 21.7951 35.2783 21.8016C35.4949 21.8081 35.7077 21.8611 35.902 21.957C36.0146 22.0112 36.1191 22.0809 36.2124 22.164C36.3704 22.3012 36.498 22.4698 36.5872 22.6591C36.6764 22.8484 36.7251 23.0541 36.7304 23.2633C36.7356 23.4725 36.6971 23.6804 36.6175 23.8739C36.5379 24.0674 36.4188 24.2422 36.2679 24.3871Z" fill="#4D0200"/>
</svg>
