<svg width="50" height="50" viewBox="0 0 50 50" fill="none" xmlns="http://www.w3.org/2000/svg">
<g clip-path="url(#clip0_427_398)">
<path d="M44.0982 16.5468L49.5858 11.0146C49.7482 10.8508 49.824 10.6201 49.7904 10.392C49.7567 10.1638 49.6175 9.96475 49.4148 9.85488L31.3976 0.0894531C31.1126 -0.0649414 30.7599 -0.0138672 30.5307 0.21543L24.9996 5.74658L19.4688 0.21582C19.3311 0.0771484 19.1466 0 18.9522 0C18.8301 0 18.71 0.0311523 18.6026 0.0898438L12.8156 3.22539C12.6437 3.31914 12.5187 3.47344 12.4631 3.66094C12.4074 3.84844 12.4279 4.04668 12.5207 4.21855C12.6496 4.45488 12.8967 4.60244 13.1652 4.60244C13.2863 4.60244 13.4074 4.57119 13.5138 4.51357L18.8194 1.6377L23.7871 6.60537L7.06775 15.6423L2.14206 10.6765L10.9378 5.90908C11.1106 5.81631 11.2356 5.66201 11.2913 5.47451C11.3469 5.28701 11.3264 5.08877 11.2327 4.91689C11.1048 4.68057 10.8577 4.53311 10.5891 4.53311C10.468 4.53311 10.3479 4.56426 10.2405 4.62187L0.585423 9.85527C0.383275 9.96357 0.24265 10.1648 0.209447 10.3924C0.176243 10.6188 0.252513 10.8513 0.414525 11.0145L5.90154 16.547L0.414134 22.079C0.251732 22.2429 0.17595 22.4735 0.209544 22.7017C0.243236 22.9299 0.382396 23.1289 0.58513 23.2388L6.20163 26.2829V39.5001C6.20154 39.5254 6.20281 39.5506 6.20534 39.5755C6.20642 39.5861 6.20847 39.5965 6.20993 39.607C6.21179 39.6198 6.21325 39.6326 6.21579 39.6452C6.21892 39.6611 6.22322 39.6766 6.22732 39.6921C6.22927 39.6992 6.23074 39.7064 6.23288 39.7136C6.23767 39.7293 6.24343 39.7446 6.24919 39.7601C6.25173 39.7669 6.25388 39.7738 6.25671 39.7806C6.26238 39.7944 6.26892 39.8076 6.27536 39.8209C6.27937 39.8292 6.28298 39.8375 6.28728 39.8456C6.29314 39.8565 6.29968 39.867 6.30593 39.8775C6.31199 39.8876 6.31775 39.8978 6.32419 39.9076C6.32956 39.9157 6.33562 39.9234 6.34138 39.9313C6.34968 39.9428 6.35788 39.9544 6.36687 39.9655C6.37185 39.9717 6.37742 39.9773 6.38259 39.9833C6.39294 39.9952 6.40329 40.0071 6.41443 40.0184C6.42019 40.0241 6.42654 40.0294 6.43249 40.0352C6.44363 40.0456 6.45456 40.0562 6.46638 40.0659C6.47781 40.0754 6.48991 40.084 6.50183 40.0927C6.50886 40.0979 6.5154 40.1033 6.52263 40.1083C6.54363 40.1225 6.5654 40.1356 6.58786 40.1478L24.6479 49.9101C24.6739 49.9243 24.701 49.9366 24.7289 49.9478C24.7349 49.9501 24.7411 49.9522 24.7472 49.9544C24.7676 49.9619 24.7882 49.9686 24.8093 49.9741C24.817 49.9762 24.8245 49.9782 24.8321 49.98C24.8526 49.9848 24.8734 49.9886 24.8945 49.9916C24.9017 49.9926 24.9088 49.9939 24.916 49.9948C24.9435 49.9979 24.9715 50 24.9999 50C25.0283 50 25.0562 49.9979 25.0838 49.9948C25.091 49.9939 25.0981 49.9926 25.1053 49.9916C25.1264 49.9886 25.1472 49.9848 25.1677 49.98C25.1753 49.9782 25.1829 49.9762 25.1904 49.9741C25.2115 49.9685 25.2322 49.9619 25.2524 49.9544C25.2586 49.9522 25.2647 49.9501 25.2708 49.9478C25.2985 49.9366 25.3257 49.9243 25.3516 49.9101L43.4117 40.1478C43.4342 40.1356 43.4559 40.1225 43.4769 40.1083C43.4841 40.1033 43.4908 40.0978 43.4977 40.0927C43.5097 40.0839 43.5218 40.0753 43.5332 40.0659C43.545 40.0562 43.5559 40.0456 43.5671 40.0352C43.573 40.0294 43.5794 40.0242 43.5851 40.0184C43.5963 40.0071 43.6066 39.9952 43.617 39.9833C43.6221 39.9773 43.6277 39.9717 43.6327 39.9655C43.6417 39.9545 43.6499 39.9429 43.6582 39.9313C43.6639 39.9234 43.67 39.9157 43.6754 39.9076C43.6818 39.8978 43.6876 39.8877 43.6936 39.8775C43.7 39.867 43.7065 39.8565 43.7123 39.8456C43.7166 39.8375 43.7202 39.8292 43.7242 39.8209C43.7306 39.8076 43.7372 39.7944 43.7428 39.7806C43.7457 39.7738 43.7478 39.7669 43.7504 39.7601C43.7561 39.7447 43.7619 39.7294 43.7667 39.7136C43.7688 39.7065 43.7703 39.6993 43.7722 39.6921C43.7763 39.6766 43.7806 39.6611 43.7838 39.6452C43.7863 39.6326 43.7878 39.6198 43.7896 39.607C43.7911 39.5965 43.7932 39.5861 43.7942 39.5755C43.7967 39.5505 43.798 39.5253 43.7979 39.5001V26.2829L49.4141 23.2389C49.6163 23.1295 49.7569 22.9283 49.7901 22.7018C49.8233 22.4742 49.7471 22.2418 49.586 22.0787L44.0982 16.5468ZM31.18 1.63779L47.8575 10.677L42.9319 15.6426L26.2128 6.60508L31.18 1.63779ZM7.27986 25.2013L2.14236 22.4167L7.06794 17.4511L23.7872 26.4886L18.8198 31.4559L7.28611 25.2046C7.28406 25.2034 7.282 25.2023 7.27986 25.2013ZM24.2676 48.0392L7.66638 39.0654V27.0769L18.6023 33.0042C18.7122 33.0637 18.8321 33.0927 18.951 33.0927C19.1408 33.0927 19.3283 33.019 19.4692 32.8782L24.2676 28.0799V48.0392ZM25 25.479L8.47585 16.547L25.0004 7.61484L41.5245 16.5469L25 25.479ZM42.7229 25.1998C42.7189 25.2019 42.715 25.204 42.7111 25.2062L39.0622 27.184C38.8893 27.2768 38.7643 27.432 38.7087 27.6195C38.653 27.8071 38.6735 28.0053 38.7663 28.1772C38.8952 28.4136 39.1423 28.5601 39.4108 28.5601C39.5319 28.5601 39.653 28.5297 39.7594 28.4722L42.3335 27.077V39.0656L25.7324 48.0393V28.0795L30.5311 32.8782C30.6699 33.0169 30.8534 33.0931 31.0487 33.0931C31.1698 33.0931 31.2899 33.0618 31.3973 33.0042L37.1843 29.8676C37.3562 29.7748 37.4812 29.6195 37.5369 29.432C37.5925 29.2445 37.572 29.0473 37.4793 28.8754C37.3504 28.6381 37.1033 28.4916 36.8338 28.4916C36.7136 28.4916 36.5926 28.5219 36.4861 28.5805L31.1805 31.4553L26.2129 26.4887L42.9323 17.4507L47.858 22.4165L42.7229 25.1998Z" fill="#6A6A6A"/>
</g>
<defs>
<clipPath id="clip0_427_398">
<rect width="50" height="50" fill="white"/>
</clipPath>
</defs>
</svg>
