<svg width="106" height="106" viewBox="0 0 106 106" fill="none" xmlns="http://www.w3.org/2000/svg">
    <g clip-path="url(#clip0_267_20)">
        <path d="M36.624 39.3861C34.8606 38.498 33.1969 37.5948 31.6794 36.702C31.3253 36.4936 30.8693 36.6117 30.661 36.9659C30.4527 37.32 30.5709 37.7759 30.9249 37.9842C32.4702 38.8934 34.1625 39.8122 35.9548 40.7149C36.0622 40.7689 36.1762 40.7945 36.2888 40.7945C36.5608 40.7945 36.823 40.6446 36.9537 40.3851C37.1386 40.0181 36.991 39.5709 36.624 39.3861Z" fill="white"/>
        <path d="M39.5494 24.7166C39.401 24.3336 38.9704 24.1434 38.587 24.2916C38.204 24.44 38.0137 24.8708 38.162 25.254C39.4599 28.6048 41.1532 32.2538 43.195 36.0996C43.3286 36.3513 43.5862 36.4947 43.8527 36.4947C43.9703 36.4947 44.0897 36.4667 44.2008 36.4077C44.5637 36.2151 44.7017 35.7647 44.509 35.4018C42.4948 31.6079 40.8261 28.0129 39.5494 24.7166Z" fill="white"/>
        <path d="M67.319 34.948C67.5949 34.948 67.86 34.7937 67.9886 34.5289C69.1671 32.1022 70.1934 29.7644 71.0395 27.5805C71.1878 27.1974 70.9975 26.7666 70.6145 26.6182C70.2313 26.4696 69.8005 26.6602 69.6521 27.0432C68.821 29.1892 67.811 31.4891 66.6505 33.8791C66.471 34.2486 66.6251 34.6937 66.9946 34.8732C67.0993 34.9239 67.21 34.948 67.319 34.948Z" fill="white"/>
        <path d="M73.7567 21.472C73.6115 21.2417 73.3536 21.1094 73.0802 21.1264C71.7368 21.2121 68.8946 21.9407 64.9536 25.8573C64.6622 26.1469 64.6608 26.6178 64.9504 26.9092C65.24 27.2006 65.711 27.202 66.0023 26.9125C68.4284 24.5015 70.8438 22.9798 72.7206 22.6644C73.3843 24.0089 73.6431 26.0902 73.4509 28.6008C73.2043 31.8218 72.2557 35.3789 70.9754 37.8843C70.7773 38.272 70.5611 38.6508 70.3297 39.0185C68.7649 36.7133 66.1229 35.1957 63.133 35.1957C62.6827 35.1957 62.2402 35.2301 61.8082 35.2965C61.5818 34.7937 61.3096 34.3191 60.9983 33.8765C61.1264 33.5789 61.2639 33.2844 61.41 32.998C62.0825 31.6819 63.0629 30.2397 64.2454 28.8273C64.5091 28.5123 64.4675 28.0431 64.1525 27.7794C63.8374 27.5156 63.3683 27.5573 63.1046 27.8723C61.8517 29.3688 60.8076 30.9073 60.085 32.3216C60.0331 32.4235 59.9824 32.5263 59.9324 32.6297C58.3404 31.0884 56.1813 30.1682 53.8784 30.1682C52.3602 30.1682 50.9319 30.5599 49.6885 31.2469C49.5164 30.8242 49.3271 30.405 49.1176 29.9943C46.8318 25.5202 40.7824 19.0969 36.1227 18.7996C35.8511 18.7821 35.591 18.9151 35.4459 19.1457C34.1698 21.1728 34.1012 24.2027 34.2684 26.3877C34.435 28.5629 34.9075 30.888 35.5826 32.9798C31.1664 32.3235 27.3893 32.7568 25.3213 34.1883C25.0972 34.3434 24.9759 34.6087 25.0051 34.8795C25.2613 37.2605 27.088 39.6799 28.5756 41.2905C30.1457 42.989 32.0798 44.6047 34.0668 45.8845C33.9111 46.5346 33.8281 47.2126 33.8281 47.9098C33.8281 49.6518 34.3415 51.3327 35.313 52.7709C35.4567 52.9838 35.6912 53.0985 35.9301 53.0985C36.0733 53.0985 36.2181 53.0572 36.3458 52.971C36.6863 52.7411 36.7757 52.2787 36.5458 51.9382C35.7409 50.7469 35.3156 49.3539 35.3156 47.9099C35.3156 43.9373 38.5476 40.7053 42.5202 40.7053C44.426 40.7053 46.2228 41.4421 47.5795 42.7801C48.8801 44.0628 49.632 45.7571 49.715 47.5721C48.7668 48.9413 48.2013 50.5943 48.1743 52.3759C46.8123 54.0954 44.7168 55.1154 42.5203 55.1154C41.0254 55.1154 39.5919 54.6619 38.3747 53.8039C38.0388 53.5672 37.5749 53.6475 37.3382 53.9833C37.1014 54.3191 37.1818 54.7831 37.5176 55.0199C38.9868 56.0556 40.7168 56.6031 42.5203 56.6031C44.691 56.6031 46.7796 55.7773 48.3671 54.3389C49.2097 58.2565 52.6998 61.202 56.8654 61.202C61.6586 61.202 65.5582 57.3024 65.5582 52.5092C65.5582 52.4182 65.5563 52.3275 65.5535 52.2371C69.2237 51.1742 71.8255 47.7628 71.8255 43.888C71.8255 42.684 71.5794 41.5365 71.1348 40.4929C71.5661 39.88 71.9575 39.2324 72.3005 38.5612C73.6646 35.892 74.6739 32.1189 74.9348 28.7144C75.1018 26.5279 75.0333 23.4964 73.7567 21.472ZM34.5569 44.4273C32.7974 43.2543 31.0502 41.7758 29.6682 40.2809C27.9602 38.4317 26.872 36.6389 26.5576 35.1717C28.5235 34.0917 32.109 33.8665 36.1571 34.5799C36.3907 35.1652 36.64 35.7204 36.9027 36.2343C37.5762 37.5529 38.4113 38.7475 39.3924 39.8001C37.231 40.6365 35.4851 42.3132 34.5569 44.4273ZM41.0327 39.3455C39.9038 38.266 38.9609 36.9936 38.2275 35.5575C36.9472 33.0523 35.9985 29.4951 35.7519 26.2741C35.5598 23.7651 35.8188 21.6836 36.4826 20.3374C38.1683 20.6188 40.2742 21.8641 42.4763 23.892C44.6678 25.9102 46.6553 28.4444 47.7928 30.6711C48.0307 31.1373 48.2431 31.6148 48.427 32.096C46.452 33.6909 45.1863 36.131 45.1863 38.8615C45.1863 39.1242 45.1986 39.3861 45.2219 39.6466C44.3603 39.3658 43.4515 39.2175 42.5203 39.2175C42.0131 39.2175 41.5162 39.2616 41.0327 39.3455ZM46.8307 40.3602C46.7272 39.8704 46.6739 39.3679 46.6739 38.8615C46.6739 34.8884 49.9059 31.656 53.8785 31.656C56.6264 31.656 59.1282 33.2356 60.3339 35.6583C56.9095 36.8259 54.4398 40.0739 54.4398 43.8881C54.4398 43.9784 54.4417 44.0692 54.4445 44.16C53.1551 44.5344 51.9883 45.1997 51.0205 46.0805C50.67 44.4361 49.8477 42.9275 48.6241 41.7208C48.0803 41.1846 47.477 40.7303 46.8307 40.3602ZM56.8653 59.7142C52.8924 59.7142 49.6603 56.4821 49.6603 52.5092C49.6603 48.5364 52.8924 45.3042 56.8653 45.3042C60.8382 45.3042 64.0703 48.5363 64.0703 52.5092C64.0702 56.4821 60.8381 59.7142 56.8653 59.7142ZM65.3758 50.7352C64.5545 46.7899 61.0507 43.8165 56.8653 43.8165C56.5486 43.8165 56.2361 43.8339 55.928 43.8671C55.9394 39.9041 59.1669 36.6834 63.1331 36.6834C67.1057 36.6834 70.3376 39.9154 70.3376 43.888C70.3376 47.0163 68.2921 49.7798 65.3758 50.7352Z" fill="white"/>
        <path d="M40.8932 47.878C40.8932 46.6661 39.9073 45.6801 38.6954 45.6801C37.4835 45.6801 36.4975 46.666 36.4975 47.878C36.4975 49.09 37.4835 50.0759 38.6954 50.0759C39.9073 50.0759 40.8932 49.0899 40.8932 47.878ZM37.9852 47.878C37.9852 47.4865 38.3038 47.1678 38.6954 47.1678C39.0869 47.1678 39.4055 47.4864 39.4055 47.878C39.4055 48.2697 39.0869 48.5882 38.6954 48.5882C38.3038 48.5882 37.9852 48.2696 37.9852 47.878Z" fill="white"/>
        <path d="M58.7607 54.0497C58.7607 55.2616 59.7467 56.2477 60.9586 56.2477C62.1706 56.2477 63.1566 55.2617 63.1566 54.0497C63.1566 52.8377 62.1706 51.8517 60.9586 51.8517C59.7467 51.8517 58.7607 52.8378 58.7607 54.0497ZM61.6688 54.0497C61.6688 54.4413 61.3502 54.7599 60.9586 54.7599C60.567 54.7599 60.2485 54.4414 60.2485 54.0497C60.2485 53.658 60.567 53.3395 60.9586 53.3395C61.3502 53.3395 61.6688 53.6581 61.6688 54.0497Z" fill="white"/>
        <path d="M65.2555 43.0635C65.2555 44.2754 66.2415 45.2614 67.4534 45.2614C68.6653 45.2614 69.6512 44.2755 69.6512 43.0635C69.6512 41.8515 68.6653 40.8655 67.4534 40.8655C66.2415 40.8655 65.2555 41.8516 65.2555 43.0635ZM68.1635 43.0635C68.1635 43.455 67.8449 43.7737 67.4534 43.7737C67.0618 43.7737 66.7432 43.4551 66.7432 43.0635C66.7432 42.6718 67.0618 42.3532 67.4534 42.3532C67.8449 42.3532 68.1635 42.6719 68.1635 43.0635Z" fill="white"/>
    </g>
    <path d="M31.5566 76.5664C31.3691 76.5781 31.1875 76.6191 31.0117 76.6895C30.8477 76.7598 30.6836 76.8477 30.5195 76.9531C30.8945 76.8945 31.2402 76.7656 31.5566 76.5664ZM29.8867 73.3496C29.7812 73.7246 29.6406 74.1992 29.4648 74.7734C29.2891 75.3359 29.0957 75.9453 28.8848 76.6016C28.6855 77.2461 28.4746 77.9082 28.252 78.5879C28.0293 79.2676 27.8242 79.9062 27.6367 80.5039C27.7188 80.8203 27.8535 81.125 28.041 81.418C28.2402 81.7109 28.5684 81.916 29.0254 82.0332C29.0957 82.0566 29.1602 82.0684 29.2188 82.0684C29.2891 82.0684 29.3594 82.0684 29.4297 82.0684C29.8164 82.0684 30.209 81.9629 30.6074 81.752C31.0059 81.5293 31.3691 81.2598 31.6973 80.9434C32.0371 80.6152 32.3184 80.2637 32.541 79.8887C32.7754 79.502 32.9219 79.1387 32.9805 78.7988C32.9922 78.7285 32.998 78.6641 32.998 78.6055C32.998 78.5352 32.998 78.4707 32.998 78.4121C32.998 78.0723 32.9277 77.7969 32.7871 77.5859C32.5059 77.8086 32.2129 77.9727 31.9082 78.0781C31.252 78.3242 30.7129 78.4473 30.291 78.4473C29.9395 78.4473 29.6523 78.3828 29.4297 78.2539C29.2188 78.1133 29.0488 77.9199 28.9199 77.6738C28.873 77.5918 28.8496 77.5039 28.8496 77.4102C28.8496 77.1992 28.9316 76.9824 29.0957 76.7598C29.2598 76.5254 29.4531 76.3145 29.6758 76.127C29.9102 75.9395 30.1504 75.7812 30.3965 75.6523C30.6543 75.5234 30.877 75.459 31.0645 75.459H31.1172C31.3281 75.459 31.5684 75.4883 31.8379 75.5469C32.1191 75.5938 32.3887 75.6641 32.6465 75.7578C32.8574 75.5938 33.0742 75.3945 33.2969 75.1602C33.5195 74.9258 33.7246 74.6562 33.9121 74.3516C34.0996 74.0469 34.2578 73.707 34.3867 73.332C34.5273 72.9453 34.6152 72.5117 34.6504 72.0312V71.9785C34.6504 71.8145 34.6035 71.6797 34.5098 71.5742C34.416 71.457 34.2871 71.3691 34.123 71.3105C33.9707 71.2402 33.7949 71.1934 33.5957 71.1699C33.3965 71.1348 33.1914 71.1172 32.9805 71.1172C32.6992 71.1172 32.4238 71.1406 32.1543 71.1875C31.8965 71.2227 31.6973 71.2812 31.5566 71.3633C31.4512 71.4219 31.3281 71.5156 31.1875 71.6445C31.0586 71.7734 30.918 71.9316 30.7656 72.1191C30.6133 72.2949 30.4609 72.4883 30.3086 72.6992C30.1562 72.9102 30.0156 73.127 29.8867 73.3496ZM28.8672 71.2754C28.9258 71.334 28.9844 71.3926 29.043 71.4512C29.1016 71.5098 29.166 71.5859 29.2363 71.6797L29.377 71.5742L28.9902 71.1523L28.8672 71.2754ZM33.8242 76.6543C33.8594 76.8066 33.9238 77.1055 34.0176 77.5508C34.1113 77.9844 34.1699 78.4824 34.1934 79.0449V79.291C34.1934 79.5488 34.1758 79.8066 34.1406 80.0645C34.1172 80.3223 34.0645 80.5742 33.9824 80.8203C33.9004 81.0664 33.7891 81.3008 33.6484 81.5234C33.5195 81.7344 33.3496 81.9277 33.1387 82.1035C32.8809 82.3145 32.5938 82.4961 32.2773 82.6484C31.9609 82.8008 31.6328 82.9238 31.293 83.0176C30.9648 83.1113 30.6309 83.1816 30.291 83.2285C29.9629 83.2754 29.6465 83.2988 29.3418 83.2988C28.9082 83.2988 28.5215 83.2578 28.1816 83.1758C27.8535 83.0938 27.6133 82.9766 27.4609 82.8242C27.3906 82.7539 27.3203 82.6719 27.25 82.5781C27.1797 82.4844 27.1094 82.3848 27.0391 82.2793C27.0039 82.3965 26.9512 82.5547 26.8809 82.7539C26.8105 82.9414 26.7461 83.123 26.6875 83.2988L25.1758 82.9648C25.2812 82.7188 25.4102 82.4023 25.5625 82.0156C25.7148 81.6289 25.8848 81.1895 26.0723 80.6973C26.0605 80.6621 26.0371 80.6152 26.002 80.5566C25.9785 80.498 25.9492 80.4277 25.9141 80.3457L26.3359 80.0293C26.5938 79.3262 26.8633 78.5762 27.1445 77.7793C27.4258 76.9824 27.6777 76.2031 27.9004 75.4414C28.1348 74.6797 28.3223 73.9707 28.4629 73.3145C28.6152 72.6465 28.6914 72.0957 28.6914 71.6621C28.6914 71.5684 28.6855 71.4863 28.6738 71.416C28.6738 71.334 28.668 71.2637 28.6562 71.2051C28.6328 71.1934 28.5977 71.1875 28.5508 71.1875C28.4102 71.1875 28.2637 71.2402 28.1113 71.3457C27.959 71.4395 27.8125 71.5684 27.6719 71.7324C27.543 71.8965 27.4199 72.084 27.3027 72.2949C27.1973 72.5059 27.1094 72.7227 27.0391 72.9453L25.8262 71.8555C26.0254 71.6445 26.1777 71.4629 26.2832 71.3105C26.4004 71.1582 26.5059 71.0293 26.5996 70.9238C26.752 70.7363 26.8926 70.5781 27.0215 70.4492C27.1621 70.332 27.2969 70.2441 27.4258 70.1855C27.5078 70.1504 27.6016 70.1152 27.707 70.0801C27.8125 70.0332 27.9355 69.9805 28.0762 69.9219C28.1934 69.8633 28.3281 69.834 28.4805 69.834C28.7852 69.834 29.0605 69.957 29.3066 70.2031C29.5527 70.4375 29.7461 70.7246 29.8867 71.0645C30.2969 70.666 30.748 70.3086 31.2402 69.9922C31.7324 69.6758 32.2305 69.5176 32.7344 69.5176H32.9453C33.2969 69.5527 33.666 69.6582 34.0527 69.834C34.4512 70.0098 34.8203 70.2266 35.1602 70.4844C35.5 70.7305 35.7812 71.0059 36.0039 71.3105C36.2266 71.6152 36.3379 71.9141 36.3379 72.207V72.3125C36.3145 72.5117 36.2324 72.7812 36.0918 73.1211C35.9629 73.4609 35.7812 73.8301 35.5469 74.2285C35.3242 74.627 35.0605 75.0371 34.7559 75.459C34.4629 75.8809 34.1523 76.2734 33.8242 76.6367V76.6543ZM42.4375 75.3184C42.3906 75.3066 42.3496 75.3008 42.3145 75.3008C42.2793 75.2891 42.2383 75.2832 42.1914 75.2832C41.8867 75.2832 41.4824 75.4531 40.9785 75.793C41.0957 75.8281 41.2188 75.8457 41.3477 75.8457C41.5938 75.8457 41.8164 75.7988 42.0156 75.7051C42.2148 75.5996 42.3555 75.4707 42.4375 75.3184ZM41.7695 81.2246C41.9336 81.1191 42.1211 80.9727 42.332 80.7852C42.5195 80.6211 42.748 80.416 43.0176 80.1699C43.2871 79.9121 43.5918 79.5957 43.9316 79.2207L45.0215 80.6797C44.7988 80.8789 44.5 81.125 44.125 81.418C43.7617 81.7109 43.3633 81.998 42.9297 82.2793C42.4961 82.5605 42.0566 82.8008 41.6113 83C41.1777 83.1992 40.7852 83.3047 40.4336 83.3164H40.3633C40.0117 83.3164 39.6367 83.252 39.2383 83.123C38.8516 83.0059 38.4824 82.8301 38.1309 82.5957C37.791 82.3613 37.4922 82.0742 37.2344 81.7344C36.9883 81.3945 36.8242 81.002 36.7422 80.5566C36.7305 80.4863 36.7188 80.416 36.707 80.3457C36.707 80.2637 36.707 80.1816 36.707 80.0996C36.707 79.7363 36.7656 79.3613 36.8828 78.9746C37.0117 78.5762 37.1699 78.1895 37.3574 77.8145C37.5449 77.4395 37.7559 77.0879 37.9902 76.7598C38.2246 76.4316 38.4473 76.1504 38.6582 75.916C38.5293 75.6465 38.4062 75.3242 38.2891 74.9492C38.1836 74.5625 38.1309 74.1641 38.1309 73.7539C38.1309 73.4141 38.1777 73.0801 38.2715 72.752C38.3652 72.4238 38.5293 72.1191 38.7637 71.8379C39.0332 71.498 39.3672 71.1816 39.7656 70.8887C40.1758 70.584 40.5918 70.3262 41.0137 70.1152C41.4473 69.8926 41.8691 69.7227 42.2793 69.6055C42.6895 69.4766 43.041 69.4121 43.334 69.4121C43.416 69.4121 43.4863 69.418 43.5449 69.4297C43.6152 69.4414 43.6797 69.459 43.7383 69.4824C43.9141 69.5762 44.1133 69.7051 44.3359 69.8691C44.5352 70.0098 44.7637 70.1973 45.0215 70.4316C45.291 70.666 45.5957 70.959 45.9355 71.3105L44.3887 71.8027C44.2598 71.4746 44.0371 71.252 43.7207 71.1348C43.416 71.0176 43.1055 70.959 42.7891 70.959C42.332 70.959 41.9746 71.0234 41.7168 71.1523C41.5762 71.2227 41.3711 71.3691 41.1016 71.5918C40.832 71.8027 40.5625 72.0488 40.293 72.3301C40.0352 72.5996 39.8066 72.875 39.6074 73.1562C39.4082 73.4375 39.3086 73.6777 39.3086 73.877C39.3086 73.8887 39.3086 73.9004 39.3086 73.9121C39.3203 73.9121 39.3262 73.918 39.3262 73.9297C39.3496 74.082 39.4141 74.2461 39.5195 74.4219C39.6367 74.5977 39.7715 74.7676 39.9238 74.9316C40.1699 74.8027 40.4395 74.6797 40.7324 74.5625C41.0254 74.4453 41.3184 74.3398 41.6113 74.2461C41.9043 74.1523 42.1797 74.0762 42.4375 74.0176C42.707 73.959 42.9414 73.9297 43.1406 73.9297C43.4102 73.9297 43.5742 73.9824 43.6328 74.0879C43.6797 74.1582 43.709 74.2461 43.7207 74.3516C43.7441 74.457 43.7559 74.5684 43.7559 74.6855C43.7559 74.873 43.7266 75.0781 43.668 75.3008C43.6211 75.5117 43.5449 75.7168 43.4395 75.916C43.334 76.1035 43.2051 76.2793 43.0527 76.4434C42.9004 76.6074 42.7246 76.7305 42.5254 76.8125C42.209 76.9297 41.834 76.9883 41.4004 76.9883C41.1309 76.9883 40.8613 76.9707 40.5918 76.9355C40.3223 76.8887 40.0703 76.8301 39.8359 76.7598C39.6484 76.9121 39.4727 77.0586 39.3086 77.1992C39.1562 77.3281 39.0391 77.4512 38.957 77.5684C38.8633 77.6973 38.7754 77.873 38.6934 78.0957C38.6113 78.3184 38.5352 78.5703 38.4648 78.8516C38.4062 79.1328 38.3594 79.4258 38.3242 79.7305C38.2891 80.0234 38.2715 80.3047 38.2715 80.5742C38.2715 80.8203 38.2891 81.0488 38.3242 81.2598C38.3594 81.459 38.4238 81.6055 38.5176 81.6992C38.5996 81.793 38.7051 81.8633 38.834 81.9102C38.9746 81.9453 39.1328 81.9629 39.3086 81.9629C39.5078 81.9629 39.7188 81.9395 39.9414 81.8926C40.1758 81.8457 40.4043 81.7871 40.627 81.7168C40.8496 81.6465 41.0605 81.5703 41.2598 81.4883C41.459 81.3945 41.6289 81.3066 41.7695 81.2246ZM51.1211 77.8848C51.1914 77.9551 51.3027 77.9902 51.4551 77.9902C51.7129 77.9902 51.9766 77.9023 52.2461 77.7266C52.1289 77.6328 51.9883 77.5859 51.8242 77.5859C51.6953 77.5859 51.5664 77.6152 51.4375 77.6738C51.3086 77.7207 51.2031 77.791 51.1211 77.8848ZM55.6914 83.3516C55.8672 83.7148 56.0371 84.0371 56.2012 84.3184C56.3652 84.5996 56.5176 84.793 56.6582 84.8984L56.1133 86.0059C55.9492 85.877 55.7852 85.7246 55.6211 85.5488C55.4688 85.373 55.3281 85.209 55.1992 85.0566C55.0586 84.8809 54.9238 84.6992 54.7949 84.5117C54.6191 84.3125 54.4551 84.0781 54.3027 83.8086C54.1621 83.5391 54.0332 83.2695 53.916 83C53.7988 82.7305 53.7051 82.4785 53.6348 82.2441C53.5762 81.998 53.5469 81.8105 53.5469 81.6816C53.5469 81.5527 53.5469 81.4238 53.5469 81.2949C53.5586 81.166 53.5703 81.0254 53.582 80.873V80.7324H53.5996C53.623 80.4512 53.6465 80.1699 53.6699 79.8887C53.6934 79.5957 53.7051 79.3262 53.7051 79.0801C53.7051 78.8926 53.6934 78.7285 53.6699 78.5879C53.6582 78.4473 53.623 78.3301 53.5645 78.2363C53.0957 78.5879 52.709 78.834 52.4043 78.9746C52.2871 79.0098 52.1758 79.0332 52.0703 79.0449C51.9648 79.0566 51.8535 79.0625 51.7363 79.0625C51.5137 79.0625 51.291 79.0391 51.0684 78.9922C50.8457 78.9336 50.6465 78.8691 50.4707 78.7988C50.2949 78.7168 50.1426 78.6289 50.0137 78.5352C49.8965 78.4297 49.832 78.3301 49.8203 78.2363V78.1836C49.8203 78.0664 49.8789 77.9316 49.9961 77.7793C50.1133 77.6152 50.2656 77.4688 50.4531 77.3398C50.6523 77.1992 50.875 77.082 51.1211 76.9883C51.3789 76.8945 51.6367 76.8477 51.8945 76.8477H51.9473C52.3457 76.8711 52.7793 76.9238 53.248 77.0059C53.4004 76.8535 53.5645 76.6836 53.7402 76.4961C53.916 76.3086 54.0801 76.127 54.2324 75.9512C54.3965 75.7637 54.543 75.5879 54.6719 75.4238C54.8008 75.2598 54.9004 75.1133 54.9707 74.9844C55.0527 74.832 55.0938 74.6035 55.0938 74.2988C55.0938 74.0176 55.0527 73.7012 54.9707 73.3496C54.9004 72.9863 54.8066 72.6523 54.6895 72.3477C54.5723 72.0312 54.4434 71.7676 54.3027 71.5566C54.1621 71.334 54.0215 71.2227 53.8809 71.2227H53.8457C53.7168 71.2227 53.5469 71.252 53.3359 71.3105C53.125 71.3574 52.8906 71.4277 52.6328 71.5215C52.375 71.6152 52.1055 71.7266 51.8242 71.8555C51.5547 71.9727 51.2969 72.1016 51.0508 72.2422V72.6113C51.0508 72.9043 51.0391 73.2148 51.0156 73.543C51.0039 73.8711 50.9746 74.1934 50.9277 74.5098C50.8926 74.8145 50.8398 75.1016 50.7695 75.3711C50.7109 75.6406 50.6289 75.8691 50.5234 76.0566C50.3945 76.3262 50.2129 76.7598 49.9785 77.3574C49.7793 77.873 49.5098 78.5938 49.1699 79.5195C48.8418 80.4453 48.4258 81.6523 47.9219 83.1406L46.2871 82.9473C46.8848 81.5059 47.3652 80.3105 47.7285 79.3613C48.1035 78.4004 48.4023 77.6211 48.625 77.0234C48.8828 76.3438 49.0762 75.8047 49.2051 75.4062C49.3809 74.9609 49.5098 74.5508 49.5918 74.1758C49.6738 73.7891 49.7441 73.4434 49.8027 73.1387L48.9414 72.5059C49 72.4238 49.1055 72.3066 49.2578 72.1543C49.4219 72.002 49.6152 71.8379 49.8379 71.6621C49.7793 71.4629 49.6855 71.3164 49.5566 71.2227C49.4277 71.1172 49.2812 71.0645 49.1172 71.0645C49.0234 71.0645 48.9355 71.082 48.8535 71.1172C48.7598 71.1523 48.6484 71.2109 48.5195 71.293C48.4141 71.3633 48.2793 71.4629 48.1152 71.5918C47.9512 71.709 47.7637 71.8613 47.5527 72.0488L46.5684 71.2227C46.8848 70.9883 47.1191 70.7949 47.2715 70.6426C47.4355 70.4785 47.5762 70.3438 47.6934 70.2383C47.8105 70.1328 47.9395 70.0449 48.0801 69.9746C48.2207 69.9043 48.4258 69.8398 48.6953 69.7812C48.7539 69.7695 48.8066 69.7637 48.8535 69.7637C48.9121 69.752 48.9707 69.7461 49.0293 69.7461C49.4277 69.7461 49.7969 69.8633 50.1367 70.0977C50.4766 70.3203 50.7168 70.584 50.8574 70.8887C51.1973 70.6543 51.5254 70.4492 51.8418 70.2734C52.1699 70.0859 52.4336 69.9746 52.6328 69.9395C52.7031 69.9277 52.7734 69.9219 52.8438 69.9219C52.9141 69.9102 52.9961 69.9043 53.0898 69.9043C53.3359 69.9043 53.6055 69.9336 53.8984 69.9922C54.1914 70.0391 54.4727 70.1094 54.7422 70.2031C55.0117 70.2852 55.252 70.3848 55.4629 70.502C55.6855 70.6191 55.8496 70.748 55.9551 70.8887C56.0488 71.0059 56.1367 71.2109 56.2188 71.5039C56.3008 71.7969 56.3711 72.1309 56.4297 72.5059C56.4883 72.8691 56.5352 73.2441 56.5703 73.6309C56.6055 74.0176 56.623 74.3574 56.623 74.6504C56.623 74.8379 56.6172 75.002 56.6055 75.1426C56.5938 75.2832 56.5645 75.3828 56.5176 75.4414C56.4824 75.5 56.4004 75.5996 56.2715 75.7402C56.1543 75.8809 56.002 76.0449 55.8145 76.2324C55.627 76.4082 55.4219 76.6016 55.1992 76.8125C54.9766 77.0234 54.7422 77.2344 54.4961 77.4453C54.8594 77.6211 55.0879 77.8262 55.1816 78.0605C55.2871 78.3066 55.3398 78.6465 55.3398 79.0801C55.3398 79.291 55.3281 79.5137 55.3047 79.748C55.293 79.9707 55.2754 80.1875 55.252 80.3984C55.2285 80.6094 55.2051 80.8027 55.1816 80.9785C55.1699 81.1426 55.1641 81.2715 55.1641 81.3652V81.4531C55.1758 81.5 55.1816 81.5527 55.1816 81.6113C55.1816 81.6699 55.1875 81.7344 55.1992 81.8047C55.2695 82.0977 55.3398 82.373 55.4102 82.6309C55.4922 82.8887 55.5859 83.1289 55.6914 83.3516ZM62.9336 77.8848C63.0039 77.9551 63.1152 77.9902 63.2676 77.9902C63.5254 77.9902 63.7891 77.9023 64.0586 77.7266C63.9414 77.6328 63.8008 77.5859 63.6367 77.5859C63.5078 77.5859 63.3789 77.6152 63.25 77.6738C63.1211 77.7207 63.0156 77.791 62.9336 77.8848ZM67.5039 83.3516C67.6797 83.7148 67.8496 84.0371 68.0137 84.3184C68.1777 84.5996 68.3301 84.793 68.4707 84.8984L67.9258 86.0059C67.7617 85.877 67.5977 85.7246 67.4336 85.5488C67.2812 85.373 67.1406 85.209 67.0117 85.0566C66.8711 84.8809 66.7363 84.6992 66.6074 84.5117C66.4316 84.3125 66.2676 84.0781 66.1152 83.8086C65.9746 83.5391 65.8457 83.2695 65.7285 83C65.6113 82.7305 65.5176 82.4785 65.4473 82.2441C65.3887 81.998 65.3594 81.8105 65.3594 81.6816C65.3594 81.5527 65.3594 81.4238 65.3594 81.2949C65.3711 81.166 65.3828 81.0254 65.3945 80.873V80.7324H65.4121C65.4355 80.4512 65.459 80.1699 65.4824 79.8887C65.5059 79.5957 65.5176 79.3262 65.5176 79.0801C65.5176 78.8926 65.5059 78.7285 65.4824 78.5879C65.4707 78.4473 65.4355 78.3301 65.377 78.2363C64.9082 78.5879 64.5215 78.834 64.2168 78.9746C64.0996 79.0098 63.9883 79.0332 63.8828 79.0449C63.7773 79.0566 63.666 79.0625 63.5488 79.0625C63.3262 79.0625 63.1035 79.0391 62.8809 78.9922C62.6582 78.9336 62.459 78.8691 62.2832 78.7988C62.1074 78.7168 61.9551 78.6289 61.8262 78.5352C61.709 78.4297 61.6445 78.3301 61.6328 78.2363V78.1836C61.6328 78.0664 61.6914 77.9316 61.8086 77.7793C61.9258 77.6152 62.0781 77.4688 62.2656 77.3398C62.4648 77.1992 62.6875 77.082 62.9336 76.9883C63.1914 76.8945 63.4492 76.8477 63.707 76.8477H63.7598C64.1582 76.8711 64.5918 76.9238 65.0605 77.0059C65.2129 76.8535 65.377 76.6836 65.5527 76.4961C65.7285 76.3086 65.8926 76.127 66.0449 75.9512C66.209 75.7637 66.3555 75.5879 66.4844 75.4238C66.6133 75.2598 66.7129 75.1133 66.7832 74.9844C66.8652 74.832 66.9062 74.6035 66.9062 74.2988C66.9062 74.0176 66.8652 73.7012 66.7832 73.3496C66.7129 72.9863 66.6191 72.6523 66.502 72.3477C66.3848 72.0312 66.2559 71.7676 66.1152 71.5566C65.9746 71.334 65.834 71.2227 65.6934 71.2227H65.6582C65.5293 71.2227 65.3594 71.252 65.1484 71.3105C64.9375 71.3574 64.7031 71.4277 64.4453 71.5215C64.1875 71.6152 63.918 71.7266 63.6367 71.8555C63.3672 71.9727 63.1094 72.1016 62.8633 72.2422V72.6113C62.8633 72.9043 62.8516 73.2148 62.8281 73.543C62.8164 73.8711 62.7871 74.1934 62.7402 74.5098C62.7051 74.8145 62.6523 75.1016 62.582 75.3711C62.5234 75.6406 62.4414 75.8691 62.3359 76.0566C62.207 76.3262 62.0254 76.7598 61.791 77.3574C61.5918 77.873 61.3223 78.5938 60.9824 79.5195C60.6543 80.4453 60.2383 81.6523 59.7344 83.1406L58.0996 82.9473C58.6973 81.5059 59.1777 80.3105 59.541 79.3613C59.916 78.4004 60.2148 77.6211 60.4375 77.0234C60.6953 76.3438 60.8887 75.8047 61.0176 75.4062C61.1934 74.9609 61.3223 74.5508 61.4043 74.1758C61.4863 73.7891 61.5566 73.4434 61.6152 73.1387L60.7539 72.5059C60.8125 72.4238 60.918 72.3066 61.0703 72.1543C61.2344 72.002 61.4277 71.8379 61.6504 71.6621C61.5918 71.4629 61.498 71.3164 61.3691 71.2227C61.2402 71.1172 61.0938 71.0645 60.9297 71.0645C60.8359 71.0645 60.748 71.082 60.666 71.1172C60.5723 71.1523 60.4609 71.2109 60.332 71.293C60.2266 71.3633 60.0918 71.4629 59.9277 71.5918C59.7637 71.709 59.5762 71.8613 59.3652 72.0488L58.3809 71.2227C58.6973 70.9883 58.9316 70.7949 59.084 70.6426C59.248 70.4785 59.3887 70.3438 59.5059 70.2383C59.623 70.1328 59.752 70.0449 59.8926 69.9746C60.0332 69.9043 60.2383 69.8398 60.5078 69.7812C60.5664 69.7695 60.6191 69.7637 60.666 69.7637C60.7246 69.752 60.7832 69.7461 60.8418 69.7461C61.2402 69.7461 61.6094 69.8633 61.9492 70.0977C62.2891 70.3203 62.5293 70.584 62.6699 70.8887C63.0098 70.6543 63.3379 70.4492 63.6543 70.2734C63.9824 70.0859 64.2461 69.9746 64.4453 69.9395C64.5156 69.9277 64.5859 69.9219 64.6562 69.9219C64.7266 69.9102 64.8086 69.9043 64.9023 69.9043C65.1484 69.9043 65.418 69.9336 65.7109 69.9922C66.0039 70.0391 66.2852 70.1094 66.5547 70.2031C66.8242 70.2852 67.0645 70.3848 67.2754 70.502C67.498 70.6191 67.6621 70.748 67.7676 70.8887C67.8613 71.0059 67.9492 71.2109 68.0312 71.5039C68.1133 71.7969 68.1836 72.1309 68.2422 72.5059C68.3008 72.8691 68.3477 73.2441 68.3828 73.6309C68.418 74.0176 68.4355 74.3574 68.4355 74.6504C68.4355 74.8379 68.4297 75.002 68.418 75.1426C68.4062 75.2832 68.377 75.3828 68.3301 75.4414C68.2949 75.5 68.2129 75.5996 68.084 75.7402C67.9668 75.8809 67.8145 76.0449 67.627 76.2324C67.4395 76.4082 67.2344 76.6016 67.0117 76.8125C66.7891 77.0234 66.5547 77.2344 66.3086 77.4453C66.6719 77.6211 66.9004 77.8262 66.9941 78.0605C67.0996 78.3066 67.1523 78.6465 67.1523 79.0801C67.1523 79.291 67.1406 79.5137 67.1172 79.748C67.1055 79.9707 67.0879 80.1875 67.0645 80.3984C67.041 80.6094 67.0176 80.8027 66.9941 80.9785C66.9824 81.1426 66.9766 81.2715 66.9766 81.3652V81.4531C66.9883 81.5 66.9941 81.5527 66.9941 81.6113C66.9941 81.6699 67 81.7344 67.0117 81.8047C67.082 82.0977 67.1523 82.373 67.2227 82.6309C67.3047 82.8887 67.3984 83.1289 67.5039 83.3516ZM73.6035 87.6406C73.7559 87.5 73.9258 87.2656 74.1133 86.9375C74.3008 86.6211 74.4883 86.252 74.6758 85.8301C74.875 85.4199 75.0684 84.9805 75.2559 84.5117C75.4434 84.0547 75.6133 83.6152 75.7656 83.1934C75.9297 82.7832 76.0645 82.4199 76.1699 82.1035C76.2754 81.7754 76.3398 81.5469 76.3633 81.418C76.1523 81.8164 75.9004 82.3027 75.6074 82.877C75.3145 83.4512 75.0273 84.0371 74.7461 84.6348C74.4648 85.2324 74.2129 85.8008 73.9902 86.3398C73.7793 86.8789 73.6504 87.3125 73.6035 87.6406ZM78.1211 78.8867C78.6484 78.7109 79.1465 78.541 79.6152 78.377C80.0137 78.2363 80.4121 78.0957 80.8105 77.9551C81.209 77.8145 81.5137 77.7031 81.7246 77.6211L81.9531 78.7461C81.6719 78.8516 81.3027 78.9863 80.8457 79.1504C80.3887 79.3145 79.9375 79.4785 79.4922 79.6426C78.9766 79.8301 78.4375 80.0176 77.875 80.2051C77.6172 81.3887 77.3008 82.5078 76.9258 83.5625C76.5508 84.6172 76.1758 85.5488 75.8008 86.3574C75.4258 87.1777 75.0801 87.8516 74.7637 88.3789C74.4473 88.918 74.2188 89.2637 74.0781 89.416C73.8906 89.6035 73.6855 89.7383 73.4629 89.8203C73.252 89.9023 73.041 89.9434 72.8301 89.9434C72.4668 89.9434 72.1504 89.8262 71.8809 89.5918C71.6113 89.3691 71.4766 89.0703 71.4766 88.6953C71.4766 88.5781 71.4824 88.4961 71.4941 88.4492C71.5293 88.2031 71.6406 87.8398 71.8281 87.3594C72.0273 86.8906 72.2617 86.3633 72.5312 85.7773C72.8125 85.2031 73.1113 84.5996 73.4277 83.9668C73.7559 83.3457 74.0664 82.7598 74.3594 82.209C74.125 82.4316 73.8496 82.6074 73.5332 82.7363C73.2285 82.8535 72.9238 82.9121 72.6191 82.9121C72.4199 82.9121 72.2266 82.8887 72.0391 82.8418C71.8516 82.7715 71.6758 82.6309 71.5117 82.4199C71.3594 82.209 71.2246 81.957 71.1074 81.6641C71.002 81.3711 70.9141 81.0605 70.8438 80.7324C70.7852 80.3926 70.7559 80.0645 70.7559 79.748C70.7559 79.4785 70.7793 79.25 70.8262 79.0625C70.8613 78.875 70.9434 78.5938 71.0723 78.2188C71.2129 77.832 71.3711 77.3984 71.5469 76.918C71.7344 76.4258 71.9277 75.9043 72.127 75.3535C72.3379 74.791 72.5312 74.2461 72.707 73.7188C72.8828 73.1797 73.0293 72.6816 73.1465 72.2246C73.2637 71.7559 73.334 71.3633 73.3574 71.0469C73.123 71.0586 72.8535 71.1406 72.5488 71.293C72.2441 71.4453 71.9395 71.6211 71.6348 71.8203C71.3418 72.0195 71.0723 72.2305 70.8262 72.4531C70.5801 72.6641 70.3984 72.8457 70.2812 72.998L69.4727 72.1367C70.2227 71.4688 70.8613 70.9062 71.3887 70.4492C71.9277 69.9805 72.3848 69.7168 72.7598 69.6582H72.9004C73.0879 69.6582 73.2988 69.6934 73.5332 69.7637C73.7676 69.834 73.9902 69.9336 74.2012 70.0625C74.4121 70.1797 74.5879 70.3203 74.7285 70.4844C74.8691 70.6367 74.9395 70.7949 74.9395 70.959C74.9395 70.9707 74.9336 70.9824 74.9219 70.9941C74.9102 71.1113 74.8398 71.3926 74.7109 71.8379C74.582 72.2715 74.4238 72.7871 74.2363 73.3848C74.0488 73.9824 73.8438 74.627 73.6211 75.3184C73.3984 75.998 73.1934 76.6484 73.0059 77.2695C72.8301 77.8906 72.6777 78.4414 72.5488 78.9219C72.4316 79.3906 72.373 79.7129 72.373 79.8887V79.9238C72.373 80.3223 72.4434 80.6504 72.584 80.9082C72.7246 81.166 72.9238 81.2949 73.1816 81.2949C73.2871 81.2949 73.3926 81.2715 73.498 81.2246C73.5801 81.1895 73.7031 81.1367 73.8672 81.0664C74.0312 80.9961 74.2246 80.8848 74.4473 80.7324C74.6816 80.5801 74.9336 80.375 75.2031 80.1172C75.4727 79.8477 75.748 79.502 76.0293 79.0801C76.252 78.7285 76.4922 78.2715 76.75 77.709C77.0078 77.1348 77.2598 76.5254 77.5059 75.8809C77.7637 75.2246 78.0039 74.5625 78.2266 73.8945C78.4609 73.2148 78.666 72.5938 78.8418 72.0312C79.0293 71.457 79.1816 70.9766 79.2988 70.5898C79.416 70.1914 79.4863 69.9453 79.5098 69.8516L81.3906 69.957C81.3203 70.1914 81.1445 70.6016 80.8633 71.1875C80.5938 71.7734 80.2832 72.4707 79.9316 73.2793C79.5918 74.0879 79.252 74.9785 78.9121 75.9512C78.5723 76.9121 78.3086 77.8906 78.1211 78.8867Z" fill="white"/>
    <circle cx="53" cy="53" r="52.5" stroke="white"/>
    <defs>
        <clipPath id="clip0_267_20">
            <rect width="50" height="50" fill="white" transform="translate(25 15)"/>
        </clipPath>
    </defs>
</svg>
