<svg width="40" height="42" viewBox="0 0 40 42" fill="none" xmlns="http://www.w3.org/2000/svg">
<path d="M12.7599 32.7841C10.4535 32.7841 8.58392 34.7363 8.58392 37.1444C8.58392 39.5525 10.4536 41.5046 12.7599 41.5046C15.0662 41.5046 16.9358 39.5524 16.9358 37.1444C16.9359 34.7363 15.0662 32.7841 12.7599 32.7841ZM12.7599 39.5668C11.4786 39.5668 10.4399 38.4823 10.4399 37.1445C10.4399 35.8066 11.4786 34.7221 12.7599 34.7221C14.0411 34.7221 15.0798 35.8066 15.0798 37.1445C15.0799 38.4823 14.0411 39.5668 12.7599 39.5668Z" fill="white"/>
<path d="M30.3918 32.7841C28.0854 32.7841 26.2158 34.7363 26.2158 37.1444C26.2158 39.5525 28.0855 41.5046 30.3918 41.5046C32.698 41.5046 34.5677 39.5524 34.5677 37.1444C34.5677 34.7363 32.6981 32.7841 30.3918 32.7841ZM30.3918 39.5668C29.1105 39.5668 28.0718 38.4823 28.0718 37.1445C28.0718 35.8066 29.1105 34.7221 30.3918 34.7221C31.673 34.7221 32.7117 35.8066 32.7117 37.1445C32.7118 38.4823 31.673 39.5668 30.3918 39.5668Z" fill="white"/>
<path d="M39.8109 7.34943C39.6176 7.12901 39.3532 6.99102 39.0685 6.96181L8.86235 6.52579L8.02717 3.86117C7.43879 2.0799 5.84124 0.877359 4.03676 0.857422H0.927995C0.415462 0.857422 0 1.29122 0 1.82637C0 2.36152 0.415462 2.79532 0.927995 2.79532H4.03676C5.04575 2.81859 5.93423 3.49506 6.26399 4.49099L12.1567 23.0463L11.6928 24.1605C11.1753 25.5539 11.3307 27.1222 12.1104 28.3754C12.8826 29.6064 14.1817 30.366 15.5904 30.4102H33.6399C34.1524 30.4102 34.5679 29.9764 34.5679 29.4413C34.5679 28.9061 34.1524 28.4724 33.6399 28.4724H15.5903C14.7948 28.4516 14.0626 28.0146 13.6415 27.3096C13.2251 26.6132 13.1396 25.7552 13.4095 24.9841L13.7808 24.112L33.315 21.9803C35.4607 21.7336 37.2257 20.1041 37.723 17.9108L39.9502 8.17288C40.0506 7.89246 39.9973 7.57708 39.8109 7.34943ZM35.9134 17.4748C35.6121 18.8867 34.464 19.9282 33.083 20.0425L13.7808 22.1257L9.46556 8.46369L37.9085 8.89971L35.9134 17.4748Z" fill="white"/>
</svg>
