<svg width="20" height="20" viewBox="0 0 20 20" fill="none" xmlns="http://www.w3.org/2000/svg">
<circle cx="10" cy="10" r="10" fill="#E5555D"/>
<path d="M11.1701 11.878H9.82609L9.47609 5.004H11.5201L11.1701 11.878ZM9.42009 14.104C9.42009 13.712 9.52275 13.4367 9.72809 13.278C9.93342 13.11 10.1901 13.026 10.4981 13.026C10.7781 13.026 11.0254 13.11 11.2401 13.278C11.4548 13.4367 11.5621 13.712 11.5621 14.104C11.5621 14.4867 11.4548 14.762 11.2401 14.93C11.0254 15.098 10.7781 15.182 10.4981 15.182C10.1901 15.182 9.93342 15.098 9.72809 14.93C9.52275 14.762 9.42009 14.4867 9.42009 14.104Z" fill="white"/>
</svg>
