<svg width="50" height="50" viewBox="0 0 50 50" fill="none" xmlns="http://www.w3.org/2000/svg">
<g opacity="0.5" clip-path="url(#clip0_317_381)">
<path d="M45.8662 11.1816H41.0231C40.6186 11.1816 40.2907 11.5095 40.2907 11.9141C40.2907 12.3187 40.6186 12.6465 41.0231 12.6465H45.8662C47.3379 12.6465 48.5351 13.8438 48.5351 15.3154V16.2979C48.5351 16.3846 48.4646 16.4551 48.3779 16.4551H32.8613V16.0219C32.8613 15.0223 32.048 14.209 31.0484 14.209H18.9515C17.9519 14.209 17.1386 15.0223 17.1386 16.0219V16.4551H13.6693C13.2648 16.4551 12.9369 16.7829 12.9369 17.1875C12.9369 17.5921 13.2648 17.9199 13.6693 17.9199H17.1596C17.3191 19.1845 18.4006 20.166 19.7077 20.166H30.2922C31.5993 20.166 32.6807 19.1845 32.8402 17.9199H45.1177L42.635 31.5152C42.5624 31.9132 42.826 32.2946 43.224 32.3674C43.2685 32.3755 43.3128 32.3794 43.3564 32.3794C43.7033 32.3794 44.0115 32.1319 44.076 31.7785L45.3045 25.0519H46.3614C47.5605 25.0519 48.5362 24.0763 48.5362 22.877V17.9119C49.3566 17.8321 50.0001 17.1389 50.0001 16.2979V15.3154C50 13.036 48.1456 11.1816 45.8662 11.1816ZM31.3965 17.5969C31.3965 18.2058 30.901 18.7012 30.2922 18.7012H19.7078C19.0989 18.7012 18.6035 18.2059 18.6035 17.5969V16.0219C18.6035 15.8299 18.7596 15.6738 18.9515 15.6738H31.0484C31.2403 15.6738 31.3965 15.83 31.3965 16.0219V17.5969ZM47.0713 22.877C47.0713 23.2685 46.7528 23.587 46.3613 23.587H45.5719L46.6068 17.92H47.0712V22.877H47.0713Z" fill="black"/>
<path d="M42.9258 34.0004C42.528 33.9277 42.1464 34.1913 42.0736 34.5893L41.8136 36.0131C41.6719 36.7897 40.9958 37.3535 40.2061 37.3535H9.79395C9.0041 37.3535 8.32803 36.7898 8.18633 36.0129L4.88223 17.9199H10.284C10.6885 17.9199 11.0164 17.5921 11.0164 17.1875C11.0164 16.7829 10.6885 16.4551 10.284 16.4551H1.62207C1.53535 16.4551 1.46484 16.3845 1.46484 16.2979V15.3154C1.46484 13.8438 2.66211 12.6465 4.13379 12.6465H37.5826C37.9871 12.6465 38.315 12.3187 38.315 11.9141C38.315 11.5095 37.9871 11.1816 37.5826 11.1816H4.13379C1.85439 11.1816 0 13.036 0 15.3154V16.2979C0 17.1508 0.662109 17.8504 1.49902 17.9137V22.877C1.49902 24.0762 2.47461 25.0519 3.67383 25.0519H4.69551L6.74521 36.2761C7.01396 37.7492 8.29609 38.8185 9.79385 38.8185H40.206C41.7037 38.8185 42.9858 37.7492 43.2546 36.2763L43.5146 34.8526C43.5873 34.4545 43.3237 34.073 42.9258 34.0004ZM3.67383 23.5869C3.28232 23.5869 2.96387 23.2684 2.96387 22.8769V17.9199H3.39316L4.42803 23.5869H3.67383Z" fill="black"/>
</g>
<defs>
<clipPath id="clip0_317_381">
<rect width="50" height="50" fill="white"/>
</clipPath>
</defs>
</svg>
