<svg width="40" height="40" viewBox="0 0 40 40" fill="none" xmlns="http://www.w3.org/2000/svg">
    <g clip-path="url(#clip0_266_27)">
        <path d="M17.515 9.06849C17.724 9.06849 17.921 8.96982 18.0458 8.80226C18.171 8.6347 18.2098 8.41829 18.1503 8.21773C17.6754 6.59612 16.8548 5.09678 15.7443 3.82356C14.8495 2.87155 13.5177 2.46397 12.2435 2.75219C12.0676 2.81947 11.9288 2.95857 11.8615 3.13454C11.825 3.23353 11.7978 3.33575 11.7806 3.43991C11.7603 3.56348 11.7493 3.68834 11.7473 3.81353V3.82421C11.7554 4.8807 12.1811 5.89125 12.9319 6.63494C14.2051 7.74448 15.7035 8.56483 17.3241 9.03937C17.3862 9.05781 17.4503 9.06784 17.515 9.06849ZM13.8713 5.69684C13.6083 5.43353 13.4019 5.11878 13.2644 4.77265V4.76618C13.2353 4.69275 13.2101 4.619 13.1884 4.54816C13.1771 4.50966 13.169 4.47343 13.1593 4.43559C13.1493 4.39774 13.1405 4.36927 13.1341 4.33628C13.1273 4.30296 13.126 4.2897 13.1215 4.26608C13.1021 4.1671 13.0885 4.06714 13.081 3.96654C13.7345 4.01603 14.3481 4.29811 14.8113 4.76166C15.4699 5.50631 16.0008 6.3548 16.3822 7.27317C15.4628 6.89049 14.613 6.35771 13.8681 5.69684H13.8713Z" fill="#4D0200"/>
        <path d="M37.8468 9.525H27.6206C28.0628 9.22287 28.4781 8.88289 28.8615 8.50927C31.2313 6.13232 31.3089 2.52842 29.795 1.01453C28.2811 -0.499366 24.6785 -0.423024 22.299 1.94939C21.326 3.00847 20.5354 4.22152 19.9596 5.53938C19.3838 4.22055 18.5925 3.00685 17.6185 1.94745C15.2416 -0.422377 11.638 -0.500013 10.1238 1.01388C8.60925 2.52777 8.68753 6.13168 11.0577 8.50927C11.4413 8.88289 11.8567 9.22287 12.2986 9.525H2.07234C1.70648 9.525 1.40985 9.82163 1.40985 10.1875V16.8124C1.40985 17.1782 1.70648 17.4749 2.07234 17.4749H3.39732V36.6871C3.39958 38.5154 4.88145 39.9973 6.70977 39.9995H33.2094C35.038 39.9973 36.5199 38.5154 36.5218 36.6871V17.4749H37.8468C38.2127 17.4749 38.5093 17.1782 38.5093 16.8124V10.1875C38.5093 9.82163 38.2127 9.525 37.8468 9.525ZM23.2364 2.88554C25.1404 0.987355 27.9175 1.00935 28.8589 1.95068C29.8002 2.89201 29.8228 5.66781 27.9246 7.57246C27.0555 8.37599 26.063 9.03492 24.9852 9.525H21.0264C21.0264 9.51109 21.0264 9.49588 21.0264 9.48197C21.0264 9.33091 21.0151 9.1779 21.0005 9.02392C20.995 8.97314 20.9892 8.92268 20.9834 8.87092C20.9682 8.74379 20.9494 8.61699 20.9268 8.49083C20.9197 8.44651 20.9122 8.40187 20.9045 8.3582C20.8728 8.19322 20.8381 8.03084 20.7984 7.87395C20.7932 7.8513 20.787 7.83157 20.7819 7.80763C20.7466 7.67048 20.7104 7.5427 20.6732 7.4104C20.668 7.39228 20.6631 7.37255 20.658 7.35444C21.2008 5.70339 22.0787 4.18173 23.2364 2.88554ZM22.6095 16.1499H17.3096V10.85H22.6095V16.1499ZM11.9951 7.57311C10.0966 5.66845 10.1189 2.89266 11.0606 1.95068C12.0019 1.0087 14.7777 0.986707 16.6811 2.8836C17.8864 4.23381 18.7899 5.82599 19.331 7.55338C19.4058 7.78596 19.4633 8.00916 19.5177 8.2259C19.5329 8.288 19.5455 8.34817 19.5588 8.40931C19.5947 8.57105 19.6235 8.72535 19.6451 8.87318C19.6523 8.92332 19.6616 8.97508 19.6675 9.02392C19.6885 9.18922 19.6998 9.35582 19.7014 9.52241H14.934C13.8568 9.03331 12.8646 8.37534 11.9951 7.57311ZM2.73483 10.85H15.9846V16.1499H2.73483V10.85ZM4.7223 36.6871V17.4749H17.3096V38.6745H6.70977C5.6122 38.6745 4.7223 37.7846 4.7223 36.6871ZM18.6346 38.6745V17.4749H21.2845V38.6745H18.6346ZM35.1968 36.6871C35.1968 37.7846 34.3073 38.6745 33.2094 38.6745H22.6095V17.4749H35.1968V36.6871ZM37.1843 16.1499H23.9345V10.85H37.1843V16.1499Z" fill="#4D0200"/>
        <path d="M22.4022 9.07039C22.4659 9.07039 22.5293 9.06134 22.5904 9.04322C24.213 8.569 25.713 7.74703 26.9859 6.63426C27.9285 5.73271 28.3348 4.40644 28.0592 3.1316C27.9925 2.95627 27.8538 2.81782 27.6784 2.75086C26.4036 2.47526 25.0773 2.88155 24.1758 3.82417C23.0634 5.09707 22.2414 6.59706 21.7668 8.21964C21.7076 8.4202 21.7461 8.63693 21.8713 8.80417C21.9965 8.97173 22.1932 9.07039 22.4022 9.07039ZM25.1126 4.76098C25.5765 4.29775 26.1908 4.016 26.8442 3.96586C26.7947 4.61961 26.5126 5.23423 26.0494 5.6981C25.3041 6.36124 24.453 6.89498 23.5318 7.27766C23.9148 6.35639 24.4491 5.50595 25.1126 4.76098Z" fill="#4D0200"/>
    </g>
    <defs>
        <clipPath id="clip0_266_27">
            <rect width="40" height="40" fill="white"/>
        </clipPath>
    </defs>
</svg>
