<svg width="40" height="40" viewBox="0 0 40 40" fill="none" xmlns="http://www.w3.org/2000/svg">
<path d="M12.7599 31.4185C10.4536 31.4185 8.58398 33.3396 8.58398 35.7093C8.58398 38.0791 10.4537 40.0001 12.7599 40.0001C15.0663 40.0001 16.9359 38.079 16.9359 35.7093C16.9359 33.3396 15.0663 31.4185 12.7599 31.4185ZM12.7599 38.0932C11.4786 38.0932 10.44 37.0259 10.44 35.7094C10.44 34.3928 11.4786 33.3256 12.7599 33.3256C14.0412 33.3256 15.0799 34.3928 15.0799 35.7094C15.08 37.0259 14.0412 38.0932 12.7599 38.0932Z" fill="#E5555D"/>
<path d="M30.3918 31.4185C28.0854 31.4185 26.2158 33.3396 26.2158 35.7093C26.2158 38.0791 28.0855 40.0001 30.3918 40.0001C32.698 40.0001 34.5677 38.079 34.5677 35.7093C34.5677 33.3396 32.6981 31.4185 30.3918 31.4185ZM30.3918 38.0932C29.1105 38.0932 28.0718 37.0259 28.0718 35.7094C28.0718 34.3928 29.1105 33.3256 30.3918 33.3256C31.673 33.3256 32.7117 34.3928 32.7117 35.7094C32.7118 37.0259 31.673 38.0932 30.3918 38.0932Z" fill="#E5555D"/>
<path d="M39.8109 6.38864C39.6176 6.17173 39.3532 6.03594 39.0685 6.0072L8.86235 5.57812L8.02717 2.95592C7.43879 1.20301 5.84124 0.0196197 4.03676 0H0.927995C0.415462 0 0 0.426889 0 0.953519C0 1.48015 0.415462 1.90704 0.927995 1.90704H4.03676C5.04575 1.92994 5.93423 2.59564 6.26399 3.57572L12.1567 21.8356L11.6928 22.9321C11.1753 24.3033 11.3307 25.8466 12.1104 27.0799C12.8826 28.2912 14.1817 29.0387 15.5904 29.0823H33.6399C34.1524 29.0823 34.5679 28.6554 34.5679 28.1288C34.5679 27.6021 34.1524 27.1752 33.6399 27.1752H15.5903C14.7948 27.1548 14.0626 26.7248 13.6415 26.031C13.2251 25.3457 13.1396 24.5014 13.4095 23.7425L13.7808 22.8844L33.315 20.7866C35.4607 20.5438 37.2257 18.9402 37.723 16.7818L39.9502 7.19898C40.0506 6.92303 39.9973 6.61267 39.8109 6.38864ZM35.9134 16.3528C35.6121 17.7423 34.464 18.7671 33.083 18.8797L13.7808 20.9297L9.46556 7.48515L37.9085 7.91423L35.9134 16.3528Z" fill="#E5555D"/>
</svg>
