<svg width="40" height="40" viewBox="0 0 40 40" fill="none" xmlns="http://www.w3.org/2000/svg">
    <path d="M30.6859 29.2757C30.5888 29.2756 30.4934 29.2494 30.4099 29.1997C30.3264 29.15 30.2579 29.0787 30.2115 28.9934C30.165 28.908 30.1425 28.8117 30.1462 28.7146C30.1499 28.6175 30.1797 28.5232 30.2324 28.4416C30.5081 28.0152 30.7697 27.5816 31.0324 27.1179C31.066 27.0537 31.1122 26.9969 31.1682 26.9509C31.2242 26.905 31.2889 26.8707 31.3583 26.8502C31.4278 26.8297 31.5007 26.8234 31.5727 26.8316C31.6447 26.8399 31.7143 26.8625 31.7773 26.8982C31.8404 26.9338 31.8957 26.9818 31.9398 27.0392C31.984 27.0967 32.0161 27.1624 32.0344 27.2325C32.0526 27.3026 32.0566 27.3757 32.046 27.4474C32.0355 27.519 32.0106 27.5879 31.973 27.6498C31.7027 28.133 31.4281 28.5838 31.14 29.0287C31.091 29.1045 31.0237 29.1668 30.9444 29.21C30.8651 29.2531 30.7762 29.2757 30.6859 29.2757Z" fill="#4D0200"/>
    <path d="M20 38.9189C19.9104 38.9189 19.8221 38.8966 19.7432 38.8541C10.4978 33.8633 4.97838 25.4054 4.97838 16.2216V6.60001C4.97838 6.52405 4.9944 6.44895 5.02537 6.3796C5.05634 6.31025 5.10158 6.24821 5.15814 6.19751C5.2147 6.14682 5.28131 6.10861 5.35363 6.08538C5.42594 6.06216 5.50234 6.05443 5.57784 6.06271C10.8368 6.63839 15.4373 5.05676 19.6351 1.22271C19.7388 1.12788 19.8754 1.07715 20.0158 1.08129C20.1563 1.08543 20.2896 1.1441 20.3876 1.24487C23.913 4.86649 28.6378 6.48487 34.4416 6.06109C34.5159 6.05566 34.5904 6.06561 34.6606 6.09033C34.7308 6.11505 34.7952 6.15401 34.8496 6.20475C34.9041 6.2555 34.9475 6.31694 34.9771 6.38524C35.0067 6.45353 35.0218 6.5272 35.0216 6.60163V16.2233C35.0213 17.0257 34.9787 17.8275 34.8941 18.6254C34.8875 18.6967 34.8669 18.7659 34.8333 18.8291C34.7998 18.8923 34.7541 18.9482 34.6988 18.9936C34.6435 19.039 34.5797 19.073 34.5112 19.0936C34.4427 19.1142 34.3707 19.1209 34.2996 19.1135C34.2284 19.106 34.1594 19.0845 34.0966 19.0502C34.0339 19.0159 33.9785 18.9695 33.9338 18.9136C33.8891 18.8578 33.8559 18.7936 33.8362 18.7248C33.8165 18.6561 33.8106 18.584 33.8189 18.513C33.8997 17.7524 33.9403 16.9881 33.9405 16.2233V7.17514C28.2649 7.4692 23.5741 5.8519 19.9795 2.36433C15.8524 5.97839 11.1762 7.60001 6.05946 7.19406V16.2211C6.05946 24.9135 11.2643 32.9465 20 37.7622C22.9959 36.1361 25.6849 33.9995 27.946 31.4487C27.9917 31.3918 28.0485 31.3449 28.1129 31.3106C28.1774 31.2763 28.248 31.2554 28.3207 31.2492C28.3934 31.2429 28.4667 31.2515 28.536 31.2743C28.6053 31.2971 28.6692 31.3337 28.724 31.3819C28.7788 31.4301 28.8232 31.4889 28.8547 31.5548C28.8861 31.6206 28.9039 31.6922 28.907 31.7651C28.91 31.838 28.8983 31.9107 28.8725 31.979C28.8467 32.0472 28.8073 32.1095 28.7568 32.1622C26.3457 34.8822 23.4671 37.1486 20.2573 38.8541C20.1782 38.8966 20.0898 38.9189 20 38.9189Z" fill="#4D0200"/>
    <path d="M33.0865 24.4865C32.9992 24.4866 32.9132 24.4655 32.8358 24.4252C32.7585 24.3848 32.692 24.3262 32.6422 24.2546C32.5924 24.1829 32.5607 24.1003 32.5497 24.0137C32.5388 23.9271 32.549 23.8391 32.5795 23.7573C32.7811 23.2168 32.9427 22.7265 33.0746 22.259C33.1148 22.1226 33.2072 22.0075 33.3316 21.9388C33.4561 21.87 33.6027 21.853 33.7395 21.8916C33.8764 21.9301 33.9926 22.021 34.0629 22.1446C34.1332 22.2683 34.152 22.4146 34.1151 22.5519C33.9751 23.0487 33.8043 23.566 33.593 24.1341C33.5546 24.2375 33.4855 24.3267 33.395 24.3897C33.3044 24.4527 33.1968 24.4865 33.0865 24.4865Z" fill="#4D0200"/>
    <path d="M20 35.7113C19.9011 35.7113 19.804 35.6842 19.7195 35.6329C12.2335 31.0924 7.76378 23.8378 7.76378 16.2216V9.49129C7.76371 9.35097 7.8182 9.21611 7.91575 9.11524C8.01329 9.01437 8.14624 8.95538 8.28649 8.95075C12.3909 8.79887 16.3457 7.37056 19.6 4.8648C19.6955 4.79348 19.8119 4.75571 19.931 4.75738C20.0502 4.75904 20.1655 4.80004 20.2589 4.87399C23.5419 7.42133 27.5635 8.83343 31.7184 8.89778C31.8582 8.90296 31.9906 8.96218 32.0877 9.063C32.1848 9.16381 32.239 9.29836 32.2389 9.43832V16.221C32.2389 23.8351 27.7692 31.0918 20.2832 35.6329C20.1979 35.6847 20.0998 35.7118 20 35.7113ZM8.84486 10.0075V16.2237C8.84486 23.3616 13.007 30.1859 20 34.5383C26.9919 30.1837 31.1551 23.3589 31.1551 16.221V9.95345C27.093 9.79017 23.1751 8.40304 19.9151 5.97399C16.6917 8.35877 12.8469 9.75963 8.84486 10.0075Z" fill="#4D0200"/>
    <path d="M17.0984 23.8822C16.955 23.8821 16.8176 23.8252 16.7162 23.7238L13.3303 20.3378C13.2318 20.2359 13.1773 20.0993 13.1786 19.9576C13.1798 19.8159 13.2366 19.6803 13.3369 19.5801C13.4371 19.4799 13.5727 19.423 13.7144 19.4218C13.8561 19.4206 13.9926 19.475 14.0946 19.5735L17.0984 22.5773L25.9054 13.7703C26.0074 13.6718 26.1439 13.6173 26.2856 13.6186C26.4274 13.6198 26.5629 13.6766 26.6632 13.7769C26.7634 13.8771 26.8202 14.0126 26.8215 14.1544C26.8227 14.2961 26.7682 14.4326 26.6697 14.5346L17.4805 23.7238C17.3792 23.8252 17.2417 23.8821 17.0984 23.8822Z" fill="#4D0200"/>
</svg>
