<svg width="40" height="40" viewBox="0 0 40 40" fill="none" xmlns="http://www.w3.org/2000/svg">
    <g clip-path="url(#clip0_266_47)">
        <path d="M39.9994 6.85968C39.9994 6.8553 39.9989 6.85093 39.9987 6.84648C39.9983 6.82905 39.9973 6.81187 39.9952 6.79483C39.9944 6.78858 39.9933 6.78233 39.9923 6.77608C39.99 6.76038 39.9871 6.74491 39.9835 6.72976C39.9821 6.72374 39.9805 6.7178 39.9789 6.71179C39.9744 6.6953 39.9692 6.67913 39.9633 6.66319C39.9622 6.66015 39.9615 6.65702 39.9603 6.65405L38.3709 2.58515C38.2106 2.17516 37.8226 1.91016 37.3823 1.91016H34.4883C34.1728 1.91016 33.9171 2.16586 33.9171 2.48133C33.9171 2.7968 34.1728 3.0525 34.4883 3.0525H37.327L38.5919 6.2907H26.6331L25.8838 3.0525H30.3004C30.6159 3.0525 30.8716 2.7968 30.8716 2.48133C30.8716 2.16586 30.6159 1.91016 30.3004 1.91016H25.1653H19.4101H7.19303C6.75272 1.91016 6.36475 2.17516 6.20451 2.58531L4.61507 6.65405C4.61389 6.6571 4.61327 6.66023 4.6121 6.66319C4.60616 6.67905 4.601 6.69523 4.59647 6.71179C4.59483 6.7178 4.59327 6.72374 4.59186 6.72976C4.58827 6.74499 4.58538 6.76046 4.58303 6.77608C4.5821 6.78233 4.58092 6.78858 4.58014 6.79483C4.57819 6.81187 4.5771 6.82905 4.57663 6.84648C4.57655 6.85085 4.576 6.85523 4.57592 6.85968C4.57592 6.86038 4.57585 6.86108 4.57585 6.86179V15.2532C4.57585 15.5686 4.83155 15.8243 5.14702 15.8243C5.46249 15.8243 5.71819 15.5686 5.71819 15.2532V7.43304H17.8253V16.1149C17.8253 16.4544 18.0253 16.7638 18.335 16.9031C18.4483 16.9541 18.569 16.979 18.6889 16.979C18.8964 16.979 19.1017 16.9045 19.2626 16.7618L22.2877 14.0819L25.3128 16.7618C25.5667 16.987 25.931 17.0424 26.2406 16.9031C26.5501 16.7637 26.7501 16.4544 26.7501 16.1149V7.43304H38.8572V33.052C38.8572 33.4618 38.5237 33.7953 38.1138 33.7953H27.641C27.641 33.7888 27.6402 33.7824 27.6401 33.7759C27.6395 33.7246 27.6376 33.6735 27.6332 33.6227C28.6166 33.8834 29.6673 33.378 30.0613 32.4116C30.2686 31.9032 30.2656 31.3446 30.0527 30.8387C30.0326 30.791 30.0105 30.7448 29.9872 30.6992C29.9829 30.6909 29.9788 30.6824 29.9745 30.6742C29.9516 30.6307 29.9272 30.5883 29.9015 30.547C29.8965 30.5389 29.8913 30.5311 29.8863 30.5231C29.8591 30.4807 29.8309 30.4391 29.8008 30.399C29.8002 30.3982 29.7996 30.3975 29.7991 30.3968C29.7692 30.3572 29.7377 30.3191 29.7051 30.2818C29.6992 30.275 29.6933 30.2681 29.6873 30.2614C29.655 30.2254 29.6215 30.1906 29.5868 30.1571C29.58 30.1506 29.5731 30.1442 29.5663 30.1378C29.5299 30.1037 29.4928 30.0705 29.454 30.0392C29.4527 30.0381 29.4513 30.0371 29.45 30.0361C29.4119 30.0054 29.3723 29.9764 29.3319 29.9484C29.3246 29.9433 29.3174 29.9381 29.31 29.9331C29.2696 29.906 29.2282 29.8803 29.1857 29.8558C29.1822 29.8538 29.179 29.8514 29.1754 29.8494C29.4168 29.6405 29.6074 29.3761 29.7314 29.0719C29.9387 28.5635 29.9356 28.0049 29.7227 27.4989C29.5365 27.0562 29.2091 26.7001 28.7897 26.4792C28.7298 26.4476 28.668 26.4188 28.6045 26.3929L19.7149 22.7682L23.8528 21.4874C24.8373 21.1826 25.3917 20.1326 25.0888 19.1469C24.9757 18.779 24.7516 18.4686 24.4621 18.2418C24.0312 17.9043 23.4553 17.7518 22.8842 17.8718C22.8815 17.8724 22.8789 17.8729 22.8761 17.8736C22.8445 17.8807 19.6723 18.594 16.3593 19.24C16.2123 19.2686 16.0691 19.2963 15.9279 19.3235C15.815 19.3452 15.7036 19.3666 15.5943 19.3874C15.5629 19.3934 15.5314 19.3993 15.5002 19.4053C15.3072 19.4419 15.1203 19.477 14.9386 19.5107C14.8654 19.5243 14.7929 19.5378 14.7216 19.5509C10.5609 20.3174 9.39209 20.3311 9.06771 20.2872C9.06646 20.2871 9.06537 20.2869 9.06412 20.2867C9.0592 20.286 9.05435 20.2853 9.04982 20.2846C9.04654 20.284 9.04349 20.2835 9.04045 20.283C9.03826 20.2826 9.03592 20.2822 9.03381 20.2819C9.01357 20.2782 8.99779 20.2744 8.9856 20.2707L8.89201 20.2326L9.00865 19.9466C9.12334 19.6654 9.12162 19.3563 9.00388 19.0764C8.97443 19.0064 8.93857 18.9403 8.89701 18.8787C8.77232 18.6941 8.59599 18.5504 8.38506 18.4643L5.31725 17.2135C5.03608 17.0987 4.72694 17.1005 4.44702 17.2183C4.16702 17.336 3.94975 17.5558 3.83507 17.8369L0.0837459 27.0371C-0.152972 27.6177 0.126793 28.2825 0.707338 28.5193L3.77522 29.7703C3.9153 29.8274 4.06022 29.8544 4.20296 29.8544C4.65163 29.8544 5.07772 29.5871 5.25733 29.1467L5.28553 29.0775L5.99287 29.3659C5.99327 29.366 5.99366 29.3663 5.99412 29.3664C6.67069 29.6423 7.29404 30.0359 7.83357 30.5243C7.9317 30.6131 8.02701 30.7051 8.11943 30.8C8.21185 30.8949 8.30123 30.9929 8.38756 31.0937C8.43068 31.1441 8.4731 31.1953 8.51459 31.2471C9.30076 32.2274 10.3314 32.9963 11.4949 33.4708L12.2907 33.7952H6.46162C6.05178 33.7952 5.71827 33.4617 5.71827 33.0519V31.6067C5.71827 31.2912 5.46256 31.0355 5.1471 31.0355C4.83163 31.0355 4.57592 31.2912 4.57592 31.6067V33.0519C4.57592 34.0917 5.42178 34.9376 6.46162 34.9376H15.0923L22.4502 37.9377C22.7035 38.041 22.9655 38.09 23.2235 38.0899C24.0344 38.0899 24.8046 37.6067 25.1292 36.8107C25.2623 36.4842 25.305 36.143 25.2692 35.8149C25.6519 35.8699 26.0487 35.8195 26.4084 35.6642C26.7739 35.5063 27.0769 35.2548 27.2921 34.9375H38.1139C39.1537 34.9375 39.9996 34.0917 39.9996 33.0518V6.86187C39.9995 6.86108 39.9994 6.86046 39.9994 6.85968ZM19.8642 3.0525H24.7112L25.4605 6.2907H19.1149L19.8642 3.0525ZM17.9424 6.2907H5.98342L7.24834 3.0525H18.6917L17.9424 6.2907ZM25.6079 15.497H25.6078L22.8608 13.0634C22.6975 12.9187 22.4926 12.8464 22.2878 12.8464C22.083 12.8464 21.8781 12.9187 21.7147 13.0634L18.9678 15.497V7.43304H25.6079V15.497ZM4.20155 28.7104L1.14351 27.4635L4.89085 18.2733L7.94889 19.5203L4.20155 28.7104ZM27.0206 32.1574L26.3651 31.89C26.3648 31.8899 26.3645 31.8898 26.3642 31.8896C26.3639 31.8896 26.3637 31.8894 26.3635 31.8893C26.3634 31.8893 26.3633 31.8892 26.3632 31.8892L19.5362 29.1056C19.2442 28.9865 18.9108 29.1267 18.7917 29.4189C18.6725 29.711 18.8128 30.0443 19.105 30.1635L25.9321 32.9472C25.9606 32.9588 25.9882 32.9717 26.0149 32.9859C26.0224 32.9899 26.0293 32.9947 26.0367 32.9988C26.0554 33.0095 26.0742 33.0201 26.092 33.0319C26.1005 33.0376 26.1083 33.0442 26.1166 33.0501C26.1323 33.0613 26.1483 33.0724 26.1631 33.0846C26.1721 33.092 26.1803 33.1002 26.1889 33.1078C26.2022 33.1196 26.2158 33.131 26.2283 33.1435C26.237 33.1521 26.2447 33.1616 26.253 33.1705C26.2645 33.1828 26.2763 33.1949 26.2871 33.2079C26.2953 33.2178 26.3024 33.2284 26.3103 33.2386C26.32 33.2514 26.3302 33.264 26.3392 33.2773C26.3467 33.2884 26.3532 33.3001 26.3603 33.3114C26.3684 33.3245 26.377 33.3374 26.3844 33.351C26.3911 33.3631 26.3967 33.3759 26.4029 33.3883C26.4095 33.4017 26.4166 33.4148 26.4225 33.4285C26.4282 33.4416 26.4328 33.4552 26.4379 33.4685C26.4431 33.482 26.4487 33.4953 26.4532 33.5091C26.4578 33.5229 26.4612 33.537 26.465 33.551C26.4688 33.5649 26.4731 33.5785 26.4764 33.5924C26.4796 33.6066 26.4816 33.621 26.4842 33.6352C26.4867 33.6494 26.4897 33.6635 26.4916 33.6778C26.4935 33.6922 26.4942 33.7067 26.4953 33.7212C26.4965 33.7357 26.4982 33.7502 26.4987 33.7647C26.4992 33.779 26.4985 33.7935 26.4983 33.8078C26.4981 33.8227 26.4984 33.8375 26.4974 33.8524C26.4966 33.8666 26.4945 33.8807 26.4929 33.8949C26.4913 33.9101 26.49 33.9253 26.4875 33.9405C26.4853 33.9544 26.4817 33.9682 26.4788 33.9821C26.4756 33.9975 26.4728 34.0129 26.4687 34.0282C26.4651 34.0417 26.4603 34.0552 26.456 34.0686C26.4511 34.0839 26.4467 34.0992 26.441 34.1143C26.4361 34.1247 26.4313 34.1352 26.4269 34.1457C26.4259 34.1481 26.4253 34.1506 26.4244 34.153C26.3352 34.359 26.1705 34.5227 25.9554 34.6156C25.7187 34.7177 25.4477 34.7213 25.2117 34.625L24.0021 34.1318C23.9965 34.1295 23.9908 34.128 23.9852 34.1259C23.9795 34.1233 23.9741 34.1203 23.9683 34.118L18.4155 31.8538C18.1232 31.7348 17.79 31.8749 17.671 32.1671C17.5518 32.4592 17.6921 32.7926 17.9842 32.9117L23.537 35.1759C23.5429 35.1783 23.5489 35.18 23.555 35.1822C23.5603 35.1845 23.5653 35.1874 23.5709 35.1896C24.0369 35.3797 24.2615 35.9134 24.0715 36.3795C23.8814 36.8456 23.3479 37.0703 22.8817 36.8801L15.4211 33.8381C15.4208 33.8379 15.4205 33.8378 15.4202 33.8376L11.9265 32.413C11.3115 32.1622 10.7404 31.8142 10.2362 31.386C9.93373 31.129 9.65537 30.8433 9.40599 30.5324C9.16029 30.226 8.89076 29.9403 8.60076 29.6778C7.96271 29.1002 7.22561 28.6348 6.42569 28.3085C6.42561 28.3085 6.42553 28.3085 6.42545 28.3085L5.71717 28.0197L7.12787 24.56L8.46099 21.2905L8.55935 21.3306C8.65193 21.3683 8.78396 21.4219 9.13927 21.4354C9.58318 21.4554 10.3176 21.4091 11.6332 21.2232C12.5281 21.0968 13.6258 20.914 14.9073 20.6782C14.9389 20.6725 14.9702 20.6667 15.0021 20.6608C15.062 20.6497 15.1225 20.6385 15.1833 20.6272C15.2306 20.6185 15.2781 20.6096 15.326 20.6006C15.3805 20.5904 15.4353 20.5801 15.4904 20.5697C15.5489 20.5587 15.6082 20.5475 15.6677 20.5362C15.7154 20.5272 15.7629 20.5182 15.8111 20.509C15.8836 20.4952 15.9575 20.4811 16.0315 20.4668C16.0697 20.4595 16.1074 20.4523 16.1458 20.445C16.2593 20.4231 16.3742 20.4009 16.4912 20.3782C19.7928 19.736 22.9796 19.0212 23.1228 18.989C23.1371 18.9861 23.1514 18.9843 23.1657 18.9822C23.5325 18.9279 23.892 19.1401 23.9972 19.4825C24.0342 19.6028 24.0385 19.7255 24.0152 19.841C23.964 20.0951 23.7793 20.3144 23.5153 20.3961L17.8527 22.1487C17.6221 22.2201 17.4614 22.4285 17.451 22.6696C17.4405 22.9106 17.5825 23.1322 17.806 23.2233L28.1735 27.4507C28.3992 27.5428 28.5756 27.7172 28.6702 27.942C28.7647 28.1667 28.7661 28.4149 28.674 28.6406C28.5819 28.8664 28.4075 29.0428 28.1828 29.1373C28.0704 29.1845 27.9522 29.2084 27.8338 29.2091C27.8321 29.2091 27.8304 29.2089 27.8287 29.2089C27.8009 29.2089 27.7731 29.2078 27.7454 29.2052C27.7372 29.2044 27.7291 29.2027 27.7209 29.2017C27.6997 29.1992 27.6785 29.1967 27.6575 29.1927C27.6442 29.1901 27.6311 29.1862 27.6179 29.1831C27.6021 29.1793 27.5863 29.1761 27.5706 29.1715C27.5545 29.1667 27.5386 29.1604 27.5227 29.1547C27.51 29.1502 27.4971 29.1464 27.4846 29.1414L20.6568 26.3573C20.3647 26.2382 20.0314 26.3784 19.9123 26.6706C19.7932 26.9627 19.9334 27.296 20.2256 27.4152L28.5033 30.7904C28.5598 30.8134 28.6131 30.8416 28.6629 30.8744C28.8122 30.9728 28.9292 31.1131 29 31.2817C29.0828 31.4783 29.0942 31.6928 29.034 31.8946C29.0254 31.9235 29.0153 31.9521 29.0038 31.9803C28.992 32.0094 28.9788 32.0376 28.9643 32.0648C28.9306 32.1281 28.8896 32.1853 28.8438 32.2374C28.8154 32.2697 28.785 32.2999 28.7527 32.3275C28.7475 32.3319 28.7428 32.3369 28.7376 32.3411C28.5292 32.5116 28.2505 32.5849 27.9782 32.5299C27.923 32.5187 27.8681 32.5028 27.814 32.4808L27.0206 32.1574Z" fill="#4D0200"/>
    </g>
    <defs>
        <clipPath id="clip0_266_47">
            <rect width="40" height="40" fill="white"/>
        </clipPath>
    </defs>
</svg>
